<svg xmlns="http://www.w3.org/2000/svg" width="25.001" height="25.001" viewBox="0 0 25.001 25.001">
    <path fill="#acbbd0" d="M2.5 25A2.518 2.518 0 0 1 0 22.473V10.862a2.517 2.517 0 0 1 2.5-2.527h5V2.526A2.517 2.517 0 0 1 10 0h12.5A2.517 2.517 0 0 1 25 2.526V14.14a2.516 2.516 0 0 1-2.5 2.527h-5v5.806A2.516 2.516 0 0 1 15 25zM.834 22.473A1.682 1.682 0 0 0 2.5 24.166H15a1.681 1.681 0 0 0 1.665-1.693V12.5H.834zm7.5-14.141H15a2.517 2.517 0 0 1 2.5 2.53v4.971h5a1.681 1.681 0 0 0 1.665-1.693V4.165H8.332zm-7.5 2.53v.8h15.831v-.8A1.682 1.682 0 0 0 15 9.167H2.5a1.683 1.683 0 0 0-1.666 1.695zm7.5-8.333v.8h15.832v-.8A1.682 1.682 0 0 0 22.5.833H10a1.683 1.683 0 0 0-1.668 1.696zM5.122 21.545a.417.417 0 0 1 0-.59L11.077 15H8.75a.417.417 0 1 1 0-.833h3.334a.45.45 0 0 1 .088.017.541.541 0 0 1 .068.014.416.416 0 0 1 .228.228.44.44 0 0 1 .014.068.412.412 0 0 1 .018.089v3.333a.417.417 0 1 1-.833 0v-2.327l-5.956 5.956a.417.417 0 0 1-.589 0zm.711-11.129a.417.417 0 1 1 .417.417.418.418 0 0 1-.417-.416zm-1.666 0a.417.417 0 1 1 .417.417.417.417 0 0 1-.417-.416zm-1.667 0a.417.417 0 1 1 .417.417.417.417 0 0 1-.417-.416zm10.833-8.332a.417.417 0 1 1 .417.417.416.416 0 0 1-.417-.417zm-1.667 0a.417.417 0 1 1 .417.417.416.416 0 0 1-.416-.417zm-1.666 0a.417.417 0 1 1 .417.417.417.417 0 0 1-.417-.417z" transform="translate(.001 .001)"/>
</svg>
