<svg xmlns="http://www.w3.org/2000/svg" width="38" height="38" viewBox="0 0 38 38">
    <path fill="#fff" stroke="#fff" stroke-miterlimit="10" d="M0 18.5A18.549 18.549 0 0 1 18.5 0a1.369 1.369 0 0 1 1.394 1.394 1.37 1.37 0 0 1-1.394 1.4A15.711 15.711 0 1 0 34.211 18.5a1.395 1.395 0 1 1 2.789 0 18.5 18.5 0 0 1-37 0zm17.152 6.646a1.39 1.39 0 0 1-.976-.464l-7.019-7.623A1.382 1.382 0 0 1 11.2 15.2l6.043 6.554L33.979 5.067a1.387 1.387 0 0 1 1.952 0 1.347 1.347 0 0 1 0 1.952L18.175 24.728a1.265 1.265 0 0 1-.976.418z" transform="translate(.5 .5)"/>
</svg>
