<svg xmlns="http://www.w3.org/2000/svg" width="21.6" height="24" viewBox="0 0 21.6 24">
    <path fill="#fff" d="M19.2 24h-4.8a2.4 2.4 0 0 1-2.4-2.4V18a2.4 2.4 0 0 1 2.4-2.4h4.8a2.4 2.4 0 0 1 2.4 2.4v3.6a2.4 2.4 0 0 1-2.4 2.4zm-4.8-6v3.6h4.8V18zm-7.2 6H2.4A2.4 2.4 0 0 1 0 21.6v-8.4a2.4 2.4 0 0 1 2.4-2.4h4.8a2.4 2.4 0 0 1 2.4 2.4v8.4A2.4 2.4 0 0 1 7.2 24zM2.4 13.2v8.4h4.8v-8.4zm16.8 0h-4.8a2.4 2.4 0 0 1-2.4-2.4V2.4A2.4 2.4 0 0 1 14.4 0h4.8a2.4 2.4 0 0 1 2.4 2.4v8.4a2.4 2.4 0 0 1-2.4 2.4zM14.4 2.4v8.4h4.8V2.4zm-7.2 6H2.4A2.4 2.4 0 0 1 0 6V2.4A2.4 2.4 0 0 1 2.4 0h4.8a2.4 2.4 0 0 1 2.4 2.4V6a2.4 2.4 0 0 1-2.4 2.4zm-4.8-6V6h4.8V2.4z"/>
</svg>
