<svg
                                  xmlns="http://www.w3.org/2000/svg"
                                  width="24"
                                  height="24"
                                  viewBox="0 0 24 24"
                                >
                                  <g
                                    id="Group_18642"
                                    data-name="Group 18642"
                                    transform="translate(-180 -38)"
                                  >
                                    <g
                                      id="Icons-3"
                                      transform="translate(184 39)"
                                    >
                                      <path
                                        class="svg-secondary-fill"
                                        id="Certificate"
                                        d="M11.141,21.991l-2.429-.624a1.033,1.033,0,0,0-.669,0l-2.751.6A1.375,1.375,0,0,1,3.669,20.6V15.544A1.375,1.375,0,0,1,5.6,14.288,6.419,6.419,0,1,0,2.7,11.656a.917.917,0,0,1-1.586.917A8.247,8.247,0,0,1,.1,7.146,8.254,8.254,0,1,1,16.46,9.365a8.253,8.253,0,0,1-7.115,7.271,8.383,8.383,0,0,1-3.842-.4v3.787l2.063-.45a2.689,2.689,0,0,1,1.66,0L11,19.991V18.534a.917.917,0,1,1,1.834,0v2.081a1.376,1.376,0,0,1-1.376,1.376A1.386,1.386,0,0,1,11.3,22,1.4,1.4,0,0,1,11.141,21.991ZM6.685,10.933,4.851,9.1a.921.921,0,0,1,1.3-1.3L7.336,8.979l3.026-3.008a.917.917,0,0,1,1.293,1.293L7.987,10.933H7.978a.918.918,0,0,1-1.293,0Z"
                                        transform="translate(0)"
                                        fill="#00d0d3"
                                      />
                                    </g>
                                    <rect
                                      id="Rectangle_3143"
                                      data-name="Rectangle 3143"
                                      width="24"
                                      height="24"
                                      transform="translate(180 38)"
                                      fill="none"
                                    />
                                  </g>
                                </svg>
