<svg
                                  id="Icons-5"
                                  xmlns="http://www.w3.org/2000/svg"
                                  width="20.819"
                                  height="18.182"
                                  viewBox="0 0 20.819 18.182"
                                >
                                  <path
                                    class="svg-secondary-fill"
                                    id="Group"
                                    d="M6.94,18.156H2.6a2.6,2.6,0,0,1-2.6-2.6V12.778a2.672,2.672,0,0,1,1.622-2.36,13.366,13.366,0,0,1,7.052-.763A.879.879,0,1,1,8.4,11.39a11.655,11.655,0,0,0-6.072.667A.964.964,0,0,0,1.8,12.8V15.58a.868.868,0,0,0,.867.867H6.94a.867.867,0,0,1,0,1.735Zm11.841.009h-4.9a.868.868,0,0,1,0-1.735h4.875a.293.293,0,0,0,.3-.286V13.228a.658.658,0,0,0-.338-.477,9.452,9.452,0,0,0-6.94,0,.658.658,0,0,0-.338.477v4.06a.868.868,0,1,1-1.735,0v-4.06a2.368,2.368,0,0,1,1.44-2.1,11.156,11.156,0,0,1,8.232,0,2.368,2.368,0,0,1,1.44,2.1v2.915a2.031,2.031,0,0,1-2.03,2.021Zm-3.6-9.551a3.036,3.036,0,1,1,3.036-2.992A3.035,3.035,0,0,1,15.18,8.613ZM2.6,3.9a3.9,3.9,0,1,1,3.9,3.9A3.9,3.9,0,0,1,2.6,3.9Z"
                                    transform="translate(0 0)"
                                    fill="#00d0d3"
                                  />
                                </svg>
