<svg
                                  xmlns="http://www.w3.org/2000/svg"
                                  width="24"
                                  height="24"
                                  viewBox="0 0 24 24"
                                >
                                  <g
                                    id="Group_18643"
                                    data-name="Group 18643"
                                    transform="translate(-180 -38)"
                                  >
                                    <rect
                                      id="Rectangle_3143"
                                      data-name="Rectangle 3143"
                                      width="24"
                                      height="24"
                                      transform="translate(180 38)"
                                      fill="none"
                                    />
                                    <path
                                      class="svg-secondary-fill"
                                      id="Massage"
                                      d="M4.026,16.907a.8.8,0,0,1-.572-1.377L6.2,12.785a2.412,2.412,0,0,1,1.714-.708h8.993a.805.805,0,0,0,.805-.805V2.415a.805.805,0,0,0-.805-.805H2.415a.806.806,0,0,0-.805.805v8.857a.806.806,0,0,0,.805.805H3.22a.805.805,0,1,1,0,1.61H2.415A2.415,2.415,0,0,1,0,11.272V2.415A2.415,2.415,0,0,1,2.415,0H16.907a2.415,2.415,0,0,1,2.416,2.415v8.857a2.415,2.415,0,0,1-2.416,2.415H7.914a.8.8,0,0,0-.572.233L4.6,16.673a.8.8,0,0,1-.566.233Zm.805-8.131a.805.805,0,0,1,0-1.61h5.635a.805.805,0,1,1,0,1.61Zm0-3.22a.805.805,0,0,1,0-1.611h8.856a.805.805,0,0,1,0,1.611Z"
                                      transform="translate(182.638 42)"
                                      fill="#00d0d3"
                                    />
                                  </g>
                                </svg>
