<svg xmlns="http://www.w3.org/2000/svg" width="171.713" height="173.847" viewBox="0 0 171.713 173.847">
    <defs>
        <filter id="q4234u8pta" width="171.713" height="173.847" x="0" y="0" filterUnits="userSpaceOnUse">
            <feOffset/>
            <feGaussianBlur result="blur" stdDeviation="24.5"/>
            <feFlood flood-color="#101d71" flood-opacity=".078"/>
            <feComposite in2="blur" operator="in"/>
            <feComposite in="SourceGraphic"/>
        </filter>
    </defs>
    <g>
        <g filter="url(#q4234u8pta)" transform="translate(73.5 73.5) translate(-73.5 -73.5)">
            <path fill="#fff" d="M8.8 26.847l-2.55-2.17a.753.753 0 0 1-.186-.91L6.9 22.1H5.364a.752.752 0 0 1-.673-1.089l.578-1.158-.525.21a7.153 7.153 0 0 0-4.272 4.894L0 26.847zm2.8-2.131l-3.079-6.163-1.148.459-.79 1.582H8.12a.753.753 0 0 1 .673 1.09L7.68 23.912l3.92 2.935zm5.43-.8l-1.115-2.228a.754.754 0 0 1 .674-1.09h1.541l-.791-1.582-1.148-.459-3.081 6.158v2.131zm7.68 2.935l-.473-1.89a7.151 7.151 0 0 0-4.27-4.893l-.526-.21.579 1.158a.752.752 0 0 1-.674 1.089h-1.535l.833 1.667a.75.75 0 0 1-.186.91l-2.55 2.17zM14.782 18a5.862 5.862 0 0 1-4.851 0l2.426 4.851zm5-9.733a6.79 6.79 0 0 1-2.853-2.893A29.364 29.364 0 0 1 4.964 8.44c.916 4.262 4 8.582 7.393 8.582 3.443 0 6.559-4.438 7.427-8.753zM4.964 8.44zm11.964-4.759a.752.752 0 0 1 1.087.43A5.366 5.366 0 0 0 20 6.651c.014-.224.022-.447.022-.667a5.211 5.211 0 0 0-2.14-4.666A9.789 9.789 0 0 0 12.357 0a9.794 9.794 0 0 0-5.53 1.318 5.213 5.213 0 0 0-2.139 4.666c0 .31.014.626.043.946h.376c5.939.005 11.759-3.215 11.821-3.249z" transform="translate(73.5 73.5)"/>
        </g>
    </g>
</svg>
