<svg xmlns="http://www.w3.org/2000/svg" width="25.874" height="23.562" viewBox="0 0 25.874 23.562">
    <path fill="#acbbd0" stroke="#acbbd0" stroke-miterlimit="10" stroke-width="1.2px" d="M.423 21.542A.529.529 0 0 1 0 21a6.272 6.272 0 0 1 4.925-6.22 6.908 6.908 0 0 0 2.02-1q-.151-.152-.3-.322a8.4 8.4 0 0 1-1.415-2.344l-.014-.009a.181.181 0 0 1-.024-.015.9.9 0 0 1-.359-.31 2.717 2.717 0 0 1-.45-2.45 1.322 1.322 0 0 1 .49-.553 8.329 8.329 0 0 1 .248-2.005 4.559 4.559 0 0 1 4.6-3.046 5.711 5.711 0 0 1 1.6.217A4.36 4.36 0 0 1 15.453 0h.072a4.441 4.441 0 0 1 4.431 4.349l.018.178a5.844 5.844 0 0 0 1.039 2.935c.12.2.246.394.365.573.5.756 1.069 1.613.338 2.569-.616.809-1.821.816-2.788.822-.17 0-.342 0-.5.008.142.221.553.381 1.731.779a8.462 8.462 0 0 1 4.435 3.8.523.523 0 0 1-.068.585l-.082.094a8.711 8.711 0 0 1-5.113 3.2A9.218 9.218 0 0 1 19.452 21a.528.528 0 0 1-.422.54 48.98 48.98 0 0 1-9.3.82 48.969 48.969 0 0 1-9.307-.818zm4.825-5.756C3.365 16.37 1.422 17.4 1.105 20.6a51.189 51.189 0 0 0 8.621.71 51.178 51.178 0 0 0 8.621-.71c-.317-3.192-2.26-4.226-4.143-4.811a7.76 7.76 0 0 1-2.535-1.309 3.4 3.4 0 0 1-3.887 0 7.752 7.752 0 0 1-2.534 1.305zm9.28-1.005a6.3 6.3 0 0 1 4.555 4.082 7.5 7.5 0 0 0 4.385-2.669 7.449 7.449 0 0 0-3.657-2.982c-2.083-.706-2.529-.975-2.529-2.229a.528.528 0 0 1 .384-.506 4.851 4.851 0 0 1 1.255-.1c.731 0 1.641-.009 1.938-.4.252-.331.147-.568-.379-1.361-.129-.194-.265-.4-.4-.62a6.854 6.854 0 0 1-1.178-3.361l-.017-.174a3.387 3.387 0 0 0-3.4-3.4 3.272 3.272 0 0 0-3.173 2.3 4.23 4.23 0 0 1 2.012 2.416 8.29 8.29 0 0 1 .249 2.008 1.309 1.309 0 0 1 .49.553 2.709 2.709 0 0 1-.45 2.45.877.877 0 0 1-.359.31l-.025.017-.013.007a8.441 8.441 0 0 1-1.415 2.344q-.147.17-.3.322a6.915 6.915 0 0 0 2.027.992zM6.159 6.047a7.5 7.5 0 0 0-.207 2.037v.005a.529.529 0 0 1-.437.547.285.285 0 0 0-.163.154c-.04.094-.136.473.365 1.381l.011.006.032.02c.2.125.38.232.446.457.209.715 1.621 3.378 3.522 3.378s3.312-2.662 3.521-3.378c.068-.226.242-.333.446-.457l.017-.01.027-.016c.51-.923.4-1.3.359-1.391a.3.3 0 0 0-.158-.143.53.53 0 0 1-.438-.547 7.458 7.458 0 0 0-.207-2.044 3.466 3.466 0 0 0-3.569-2.262 3.5 3.5 0 0 0-3.567 2.263z" transform="translate(.6 .601)"/>
</svg>
