<svg xmlns="http://www.w3.org/2000/svg" width="36" height="36" viewBox="0 0 36 36">
    <path fill="#fff" d="M24.881 34.6c0-3.118 1.824-6.023 3.755-9.1A28.759 28.759 0 0 0 32 19.019a32.157 32.157 0 0 0 .484-15.375 1.049 1.049 0 0 0-1.219-.821l-.026.005a1.119 1.119 0 0 0-.837 1.25c.021.3.049.629.083 1.015 1.074 12.087-3.3 17.237-3.359 17.323a1.405 1.405 0 0 1-2.38-1.495A6.479 6.479 0 0 0 26 17.228a1.811 1.811 0 0 0-.546-1.3 1.28 1.28 0 0 0-1-.278 1.3 1.3 0 0 0-.988.628 3.334 3.334 0 0 0-.274.782 19.755 19.755 0 0 1-4.233 8.261 11.424 11.424 0 0 0-2.214 3.8 9.82 9.82 0 0 0-.233 2.421 4.254 4.254 0 0 1-1.241 3.073 4.319 4.319 0 0 1-7.229-1.823 24.592 24.592 0 0 0-3.052-5.818 30.209 30.209 0 0 1-3.685-7.14A34.953 34.953 0 0 1 .76 3.1 3.869 3.869 0 0 1 5.255.067l.029.005A3.89 3.89 0 0 1 8.4 4.271c-.022.319-.053.681-.086 1.065A31.707 31.707 0 0 0 8.5 14c.07-.07.142-.139.218-.2a4.171 4.171 0 0 1 6.188.975 5.443 5.443 0 0 1 .615 1.549c.021.076.284.881.89 2.561a1.429 1.429 0 0 1-.747 1.838 1.408 1.408 0 0 1-1.842-.745 23.511 23.511 0 0 1-.942-2.658c-.024-.086-.048-.171-.07-.256a3.324 3.324 0 0 0-.275-.783 1.3 1.3 0 0 0-.988-.629 1.288 1.288 0 0 0-1 .278 1.815 1.815 0 0 0-.546 1.3 6.479 6.479 0 0 0 1.258 3.694 1.4 1.4 0 0 1-2.38 1.494c-.054-.086-4.728-5.585-3.359-17.322.045-.385.063-.72.083-1.015a1.119 1.119 0 0 0-.836-1.25l-.029-.005a1.047 1.047 0 0 0-1.217.819A32.159 32.159 0 0 0 4 19.018a28.152 28.152 0 0 0 3.371 6.455 26.477 26.477 0 0 1 3.379 6.547 1.5 1.5 0 0 0 1.436 1.08 1.52 1.52 0 0 0 1.088-.456 1.475 1.475 0 0 0 .433-1.064 11.636 11.636 0 0 1 .341-3.235 15.189 15.189 0 0 1 2.652-4.69 19.461 19.461 0 0 0 3.785-7.337 4.581 4.581 0 0 1 .615-1.548 4.171 4.171 0 0 1 6.188-.975c.076.065.148.133.218.2a31.707 31.707 0 0 0 .178-8.663c-.033-.383-.065-.744-.086-1.065a3.89 3.89 0 0 1 3.121-4.2l.026-.005a3.869 3.869 0 0 1 4.5 3.03 34.945 34.945 0 0 1-.551 16.736 30.779 30.779 0 0 1-3.672 7.157c-1.71 2.723-3.326 5.3-3.326 7.609a1.406 1.406 0 0 1-2.812 0zm-8.223-21.977v-.183a10.863 10.863 0 0 1-1.855-.547 1.4 1.4 0 1 1 1.039-2.606 7.464 7.464 0 0 0 2.4.532.7.7 0 0 0 .7-.7c0-.393-.417-.7-.95-.7-2.283 0-4.006-1.507-4.006-3.506a3.513 3.513 0 0 1 2.671-3.4V1.4a1.405 1.405 0 0 1 2.811 0v.258a11.348 11.348 0 0 1 1.212.4 1.4 1.4 0 1 1-1.019 2.615 5.548 5.548 0 0 0-2.161-.466.7.7 0 0 0-.7.7c0 .4.514.7 1.194.7a3.6 3.6 0 0 1 3.76 3.506 3.513 3.513 0 0 1-2.285 3.287v.222a1.405 1.405 0 0 1-2.811 0z"/>
</svg>
