<svg xmlns="http://www.w3.org/2000/svg" width="26.4" height="26.4" viewBox="0 0 26.4 26.4">
    <path fill="#acbbd0" stroke="#acbbd0" stroke-linecap="round" stroke-linejoin="bevel" stroke-miterlimit="10" stroke-width="1.2px" d="M13.329 25.2h-1.458a1.644 1.644 0 0 1-1.617-1.349l-.211-1.163a10.292 10.292 0 0 1-2.764-1.15l-.976.677a1.623 1.623 0 0 1-.927.282 1.661 1.661 0 0 1-1.17-.472l-1.031-1.032a1.641 1.641 0 0 1-.19-2.1l.676-.976a10.285 10.285 0 0 1-1.148-2.764l-1.163-.207A1.643 1.643 0 0 1 0 13.329v-1.458a1.641 1.641 0 0 1 1.35-1.616l1.163-.212a10.285 10.285 0 0 1 1.148-2.764L2.985 6.3a1.642 1.642 0 0 1 .19-2.1l1.032-1.025a1.662 1.662 0 0 1 1.17-.475 1.618 1.618 0 0 1 .926.283l.976.677a10.292 10.292 0 0 1 2.764-1.15l.211-1.162A1.645 1.645 0 0 1 11.871 0h1.458a1.643 1.643 0 0 1 1.617 1.349l.212 1.163a10.3 10.3 0 0 1 2.763 1.15l.976-.677a1.62 1.62 0 0 1 .927-.283 1.659 1.659 0 0 1 1.17.473l1.032 1.031a1.643 1.643 0 0 1 .189 2.1l-.676.976a10.318 10.318 0 0 1 1.149 2.764l1.163.211a1.643 1.643 0 0 1 1.349 1.614v1.458a1.641 1.641 0 0 1-1.349 1.616l-1.163.212a10.317 10.317 0 0 1-1.149 2.764l.676.976a1.642 1.642 0 0 1-.189 2.1l-1.032 1.031a1.644 1.644 0 0 1-2.1.19l-.976-.677a10.3 10.3 0 0 1-2.763 1.15l-.212 1.162a1.643 1.643 0 0 1-1.614 1.347zm-6.066-4.864a.544.544 0 0 1 .3.088 9.244 9.244 0 0 0 3.07 1.276.544.544 0 0 1 .424.437l.275 1.517a.548.548 0 0 0 .539.45h1.458a.549.549 0 0 0 .539-.451l.275-1.516a.544.544 0 0 1 .424-.437 9.244 9.244 0 0 0 3.073-1.277.545.545 0 0 1 .609.01l1.271.879a.539.539 0 0 0 .309.094.556.556 0 0 0 .39-.157l1.031-1.031a.547.547 0 0 0 .062-.7l-.879-1.272a.545.545 0 0 1-.01-.608 9.226 9.226 0 0 0 1.277-3.071.546.546 0 0 1 .437-.424l1.517-.275a.548.548 0 0 0 .45-.539v-1.458a.549.549 0 0 0-.45-.54l-1.517-.274a.546.546 0 0 1-.437-.424 9.226 9.226 0 0 0-1.276-3.073.547.547 0 0 1 .01-.609l.879-1.271a.547.547 0 0 0-.062-.7l-1.032-1.03a.559.559 0 0 0-.391-.158.534.534 0 0 0-.308.095l-1.271.879a.545.545 0 0 1-.609.01A9.238 9.238 0 0 0 14.567 3.5a.544.544 0 0 1-.424-.437l-.275-1.517a.548.548 0 0 0-.539-.45h-1.458a.549.549 0 0 0-.539.451l-.275 1.516a.544.544 0 0 1-.424.437A9.238 9.238 0 0 0 7.56 4.776a.543.543 0 0 1-.608-.01L5.68 3.887a.537.537 0 0 0-.308-.094.556.556 0 0 0-.391.157L3.95 4.981a.547.547 0 0 0-.063.7l.879 1.271a.545.545 0 0 1 .01.609A9.244 9.244 0 0 0 3.5 10.633a.546.546 0 0 1-.437.424l-1.517.275a.547.547 0 0 0-.45.539v1.458a.548.548 0 0 0 .45.539l1.517.275a.546.546 0 0 1 .437.424 9.244 9.244 0 0 0 1.276 3.073.543.543 0 0 1-.01.608l-.879 1.272a.547.547 0 0 0 .063.7l1.03 1.031a.555.555 0 0 0 .39.157.545.545 0 0 0 .31-.094l1.271-.879a.545.545 0 0 1 .312-.099zM12.6 17.53a4.93 4.93 0 1 1 4.93-4.93 4.936 4.936 0 0 1-4.93 4.93zm0-8.765a3.835 3.835 0 1 0 3.835 3.835A3.839 3.839 0 0 0 12.6 8.765z" transform="translate(.6 .6)"/>
</svg>
