<svg xmlns="http://www.w3.org/2000/svg" width="543.229" height="363.6" viewBox="0 0 543.229 363.6">
  <g id="Group_20169" data-name="Group 20169" transform="translate(-313.999 -324.6)">
    <g id="Group_20163" data-name="Group 20163" transform="translate(33.828 40)">
      <path id="Path" d="M315.621,59.942C280.8,58.737,247.628,47.49,215.955,35.19S152.912,9.264,118.921,2.748c-21.863-4.192-46.868-4.789-64.48,6.92C37.486,20.968,32.008,40.42,29.065,58.484c-2.217,13.592-3.519,27.9,2.551,40.626,4.219,8.836,11.7,16.261,16.875,24.725,18.01,29.445,5.279,65.755-14.233,94.505-9.148,13.485-19.775,26.367-26.84,40.707s-10.331,30.827-4.149,45.5c6.124,14.529,20.722,25.42,36.537,33.087,32.119,15.578,69.952,20.033,106.871,22.562,81.7,5.585,163.828,3.169,245.742.743,30.316-.893,60.762-1.8,90.583-6.489,16.563-2.6,33.658-6.737,45.684-16.713,15.26-12.661,19.043-34.1,8.814-49.973-17.154-26.636-64.571-33.249-76.576-61.827-6.6-15.734.178-33.254,9.772-47.842,20.577-31.3,55.063-58.76,56.876-94.532,1.248-24.569-15.33-49.176-40.965-60.8-26.867-12.188-64.13-10.654-83.943,9.519C382.243,53.022,346.373,61.013,315.621,59.942Z" transform="translate(280.171 284.6)" fill="#0c9ee2" opacity="0.04"/>
      <g id="Layer_2" data-name="Layer 2" transform="translate(331.141 308.904)">
        <g id="Background_Complete" data-name="Background Complete" transform="translate(17.682 5.216)">
          <path id="Path_64701" data-name="Path 64701" d="M0,0H111.836V164.677H0Z" transform="translate(0 102.706) rotate(-33.78)" fill="#fff"/>
          <path id="Path_64664" data-name="Path 64664" d="M176.3,210.151l-1.06,6.528-46.213-6.661,1.06-6.528Z" transform="translate(-39.813 -39.224)" fill="#e0e0e0"/>
          <path id="Path_64665" data-name="Path 64665" d="M156.477,183.41l6.628.961-7.349,45.5-6.636-.961Z" transform="translate(-43.259 -35.78)" fill="#e0e0e0"/>
          <path id="Path_64666" data-name="Path 64666" d="M97.955,113.61c.066.1-9.254,6.446-20.8,14.175S56.166,141.7,56.1,141.6s9.246-6.446,20.811-14.175S97.888,113.51,97.955,113.61Z" transform="translate(-27.304 -23.807)" fill="#e0e0e0"/>
          <path id="Path_64667" data-name="Path 64667" d="M133.5,103.26c.066.091-15.426,10.571-34.6,23.4S64.111,149.8,64.07,149.7s15.418-10.571,34.6-23.4S133.439,103.16,133.5,103.26Z" transform="translate(-28.671 -22.032)" fill="#e0e0e0"/>
          <path id="Path_64668" data-name="Path 64668" d="M141.783,115.62c.066.1-15.426,10.58-34.6,23.4s-34.8,23.139-34.8,23.04,15.418-10.571,34.556-23.4S141.717,115.52,141.783,115.62Z" transform="translate(-30.098 -24.152)" fill="#e0e0e0"/>
          <path id="Path_64669" data-name="Path 64669" d="M150.045,128c.066.1-15.418,10.571-34.589,23.4s-34.8,23.148-34.846,23.048,15.426-10.58,34.606-23.4S149.979,127.892,150.045,128Z" transform="translate(-31.508 -26.276)" fill="#e0e0e0"/>
          <path id="Path_64670" data-name="Path 64670" d="M158.323,140.35c.066.1-15.426,10.58-34.6,23.4s-34.8,23.139-34.846,23.04,15.426-10.571,34.606-23.4S158.257,140.25,158.323,140.35Z" transform="translate(-32.927 -28.394)" fill="#e0e0e0"/>
          <rect id="Rectangle_3931" data-name="Rectangle 3931" width="96.601" height="142.242" transform="translate(195.105 0) rotate(28.14)" fill="#fff"/>
          <path id="Path_64678" data-name="Path 64678" d="M257.131,156.388l-5.4,1.848-13.72-37.92,5.4-1.856Z" transform="translate(-58.506 -24.64)" fill="#e0e0e0"/>
          <path id="Path_64679" data-name="Path 64679" d="M263.293,131.4l1.972,5.443L227.6,149.734,225.63,144.3Z" transform="translate(-56.382 -26.859)" fill="#e0e0e0"/>
          <path id="Path_64680" data-name="Path 64680" d="M295.45,59.613c-.066.124-8.707-4.366-19.3-10.025S257.017,39.232,257.1,39.1s8.707,4.366,19.3,10.033S295.516,59.488,295.45,59.613Z" transform="translate(-61.78 -11.027)" fill="#e0e0e0"/>
          <path id="Path_64681" data-name="Path 64681" d="M314.887,84.042c-.066.133-14.366-7.39-31.93-16.785S251.194,50.14,251.26,50s14.366,7.39,31.938,16.793S314.953,83.918,314.887,84.042Z" transform="translate(-60.778 -12.897)" fill="#e0e0e0"/>
          <path id="Path_64682" data-name="Path 64682" d="M308.827,95.384c-.066.124-14.366-7.4-31.93-16.793S245.134,61.474,245.2,61.35s14.366,7.39,31.938,16.793S308.893,95.259,308.827,95.384Z" transform="translate(-59.739 -14.844)" fill="#e0e0e0"/>
          <path id="Path_64683" data-name="Path 64683" d="M302.767,106.714c-.066.124-14.366-7.39-31.93-16.785S239.074,72.8,239.14,72.68s14.366,7.4,31.938,16.835S302.817,106.589,302.767,106.714Z" transform="translate(-58.699 -16.787)" fill="#e0e0e0"/>
          <path id="Path_64684" data-name="Path 64684" d="M296.707,118.042c-.066.124-14.366-7.39-31.93-16.785S233.014,84.14,233.08,84s14.366,7.39,31.938,16.785S296.807,117.918,296.707,118.042Z" transform="translate(-57.66 -18.729)" fill="#e0e0e0"/>
        </g>
        <g id="Floor" transform="translate(0 308.625)">
          <path id="Path_64685" data-name="Path 64685" d="M478.306,371.655c0,.116-107.081.215-239.14.215S0,371.771,0,371.655s107.056-.215,239.165-.215S478.306,371.531,478.306,371.655Z" transform="translate(0 -371.44)" fill="#263238"/>
        </g>
        <g id="Plant" transform="translate(17.668 256.944)">
          <path id="Path_64686" data-name="Path 64686" d="M31.364,309.068a10.439,10.439,0,0,1,7.282,3.728,18.451,18.451,0,0,1,3.7,7.456c1.4,5.236.539,11.425-.953,16.636-5.675-2.03-9.171-8.078-10.77-11.259-2.485-5.021-3.96-15.625.721-16.57" transform="translate(-22.521 -309.06)" fill="#0c9ee2"/>
          <path id="Path_64687" data-name="Path 64687" d="M53.616,347.21a8.914,8.914,0,0,1-.423-8.931,11.822,11.822,0,0,1,7.125-5.733,4.991,4.991,0,0,1,4.192.207,3.8,3.8,0,0,1,1.466,3.571,7.763,7.763,0,0,1-1.657,3.662c-2.759,3.736-6.114,6.843-10.77,7.224" transform="translate(-26.62 -313.027)" fill="#0c9ee2"/>
          <path id="Path_64688" data-name="Path 64688" d="M54.326,366.026a5.866,5.866,0,0,1-.249-1.085c-.157-.779-.348-1.781-.588-2.991a31.209,31.209,0,0,1-.621-10.025,19.2,19.2,0,0,1,3.72-9.3,13.207,13.207,0,0,1,2.154-2.171c.273-.232.522-.373.671-.489a1.17,1.17,0,0,1,.257-.141,20.483,20.483,0,0,0-2.858,2.974,19.759,19.759,0,0,0-3.554,9.171,33.649,33.649,0,0,0,.505,9.942c.207,1.268.365,2.295.464,3.007a6.115,6.115,0,0,1,.1,1.1Z" transform="translate(-26.709 -314.338)" fill="#263238"/>
          <path id="Path_64689" data-name="Path 64689" d="M34.16,318.69a2.586,2.586,0,0,1,.232.431l.58,1.268c.505,1.094,1.21,2.7,2.063,4.681,1.707,3.968,3.993,9.486,6.371,15.625s4.416,11.764,5.8,15.849c.7,2.038,1.268,3.695,1.657,4.847l.423,1.326a3.024,3.024,0,0,1,.124.472,2.038,2.038,0,0,1-.2-.447c-.124-.34-.29-.77-.489-1.3l-1.781-4.805c-1.475-4.06-3.546-9.652-5.932-15.8s-4.623-11.665-6.263-15.658c-.828-1.964-1.466-3.571-1.947-4.731-.207-.53-.381-.961-.514-1.292A2.484,2.484,0,0,1,34.16,318.69Z" transform="translate(-23.527 -310.712)" fill="#263238"/>
          <path id="Path_64690" data-name="Path 64690" d="M42.215,355.385a20.861,20.861,0,0,0-16.188-10.049c-1.657-.116-3.687.166-4.441,1.657s.257,3.314,1.4,4.532a17.8,17.8,0,0,0,19.287,4.3" transform="translate(-21.326 -315.278)" fill="#0c9ee2"/>
          <path id="Path_64691" data-name="Path 64691" d="M30.1,350.758a5.8,5.8,0,0,1,1.044.041,9.943,9.943,0,0,1,1.226.141c.472.083,1.019.141,1.607.3s1.243.29,1.914.53a22.454,22.454,0,0,1,2.129.828,23.526,23.526,0,0,1,4.49,2.659,22.854,22.854,0,0,1,3.7,3.67,18.42,18.42,0,0,1,1.309,1.872,16.365,16.365,0,0,1,.969,1.756c.3.53.472,1.052.671,1.491a9.2,9.2,0,0,1,.414,1.16,5.907,5.907,0,0,1,.273,1.011c-.083,0-.489-1.417-1.6-3.538a18.227,18.227,0,0,0-1-1.657,18.45,18.45,0,0,0-1.317-1.814,23.555,23.555,0,0,0-3.662-3.587,24.18,24.18,0,0,0-4.4-2.643,21.357,21.357,0,0,0-2.088-.828,17.4,17.4,0,0,0-1.872-.572C31.583,350.957,30.083,350.841,30.1,350.758Z" transform="translate(-22.831 -316.211)" fill="#263238"/>
        </g>
        <g id="Folder" transform="translate(71.466 100.395)">
          <path id="Path_64692" data-name="Path 64692" d="M205.761,164.305l-29.3,150.617-3.836,19.71,195.579-.961c8.774-.05,16.57-7.837,19.378-19.42L422.309,172.06c2.146-8.79-2.56-17.928-9.221-17.92l-197.948.207C210.732,154.355,206.9,158.432,205.761,164.305Z" transform="translate(-101.065 -125.439)" fill="#141821"/>
          <g id="Group_20161" data-name="Group 20161" transform="translate(71.565 28.7)" opacity="0.8">
            <path id="Path_64693" data-name="Path 64693" d="M205.761,164.305l-29.3,150.617-3.836,19.71,195.579-.961c8.774-.05,16.57-7.837,19.378-19.42L422.309,172.06c2.146-8.79-2.56-17.928-9.221-17.92l-197.948.207C210.732,154.355,206.9,158.432,205.761,164.305Z" transform="translate(-172.63 -154.14)" fill="#acbbd0"/>
          </g>
          <path id="Path_64694" data-name="Path 64694" d="M334.63,298.877,313.918,132.022c-.828-6.843-6.3-11.938-12.725-11.922l-45.409.149a12.427,12.427,0,0,0-8.964,3.977l-21.54,22.924L99,147.8c-7.721.041-13.645,7.349-12.626,15.551l19.229,154.221c.828,6.827,6.28,11.922,12.709,11.905l220.077-.431c24.515.505,26.851-6.736,26.851-6.736C337.14,328.545,334.638,298.9,334.63,298.877Z" transform="translate(-86.262 -120.1)" fill="#acbbd0"/>
          <g id="Group_20164" data-name="Group 20164" transform="translate(-5 -1)">
            <circle id="Ellipse_437" data-name="Ellipse 437" cx="44.5" cy="44.5" r="44.5" transform="translate(94.564 83.701)" fill="#fff" opacity="0.7"/>
            <g id="Group_20162" data-name="Group 20162" transform="translate(113.564 103.701)">
              <path id="Path_64695" data-name="Path 64695" d="M243.743,273.473l-5.769,6.2L193.55,239.7l5.769-6.194Z" transform="translate(-193.55 -232.139)" fill="#0c9ee2"/>
              <path id="Path_64696" data-name="Path 64696" d="M236.561,231.38l6.374,5.73-40.2,43.176-6.374-5.737Z" transform="translate(-194.551 -231.38)" fill="#0c9ee2"/>
            </g>
          </g>
        </g>
      </g>
    </g>
  </g>
</svg>
