<svg xmlns="http://www.w3.org/2000/svg" width="25.001" height="25.001" viewBox="0 0 25.001 25.001">
  <path id="back_to_" data-name="back to " d="M2.5,25A2.518,2.518,0,0,1,0,22.473V10.862A2.517,2.517,0,0,1,2.5,8.335h5V2.526A2.517,2.517,0,0,1,10,0H22.5A2.517,2.517,0,0,1,25,2.526V14.14a2.516,2.516,0,0,1-2.5,2.527h-5v5.806A2.516,2.516,0,0,1,15,25ZM.834,22.473A1.682,1.682,0,0,0,2.5,24.166H15a1.681,1.681,0,0,0,1.665-1.693V12.5H.834Zm7.5-14.141H15a2.517,2.517,0,0,1,2.5,2.53v4.971h5a1.681,1.681,0,0,0,1.665-1.693V4.165H8.332Zm-7.5,2.53v.8H16.665v-.8A1.682,1.682,0,0,0,15,9.167H2.5A1.683,1.683,0,0,0,.834,10.862Zm7.5-8.333v.8H24.166v-.8A1.682,1.682,0,0,0,22.5.833H10A1.683,1.683,0,0,0,8.332,2.529ZM5.122,21.545a.417.417,0,0,1,0-.59L11.077,15H8.75a.417.417,0,1,1,0-.833h3.334a.45.45,0,0,1,.088.017.541.541,0,0,1,.068.014.416.416,0,0,1,.228.228.44.44,0,0,1,.014.068.412.412,0,0,1,.018.089v3.333a.417.417,0,1,1-.833,0V15.589L5.711,21.545a.417.417,0,0,1-.589,0Zm.711-11.129a.417.417,0,1,1,.417.417A.418.418,0,0,1,5.833,10.417Zm-1.666,0a.417.417,0,1,1,.417.417A.417.417,0,0,1,4.167,10.417Zm-1.667,0a.417.417,0,1,1,.417.417A.417.417,0,0,1,2.5,10.417ZM13.333,2.084a.417.417,0,1,1,.417.417A.416.416,0,0,1,13.333,2.084Zm-1.667,0a.417.417,0,1,1,.417.417A.416.416,0,0,1,11.667,2.084ZM10,2.084a.417.417,0,1,1,.417.417A.417.417,0,0,1,10,2.084Z" transform="translate(0.001 0.001)" fill="#acbbd0"/>
</svg>
