<svg xmlns="http://www.w3.org/2000/svg" xmlns:xlink="http://www.w3.org/1999/xlink" width="182.828" height="173.87" viewBox="0 0 182.828 173.87">
  <defs>
    <filter id="Combined_Shape" x="0" y="0" width="182.828" height="173.87" filterUnits="userSpaceOnUse">
      <feOffset input="SourceAlpha"/>
      <feGaussianBlur stdDeviation="24.5" result="blur"/>
      <feFlood flood-color="#101d71" flood-opacity="0.078"/>
      <feComposite operator="in" in2="blur"/>
      <feComposite in="SourceGraphic"/>
    </filter>
  </defs>
  <g id="book-wight" transform="translate(73.5 73.5)">
    <g id="open-book">
      <g transform="matrix(1, 0, 0, 1, -73.5, -73.5)" filter="url(#Combined_Shape)">
        <path id="Combined_Shape-2" data-name="Combined Shape" d="M34.259,26.838a31.423,31.423,0,0,0-13.572-.257c2.956-2.746,7.129-3.233,9.66-3.238a3.252,3.252,0,0,0,3.27-3.212V4.353h.93a1.271,1.271,0,0,1,1.282,1.258v20a1.242,1.242,0,0,1-.482.983,1.294,1.294,0,0,1-.8.275A1.316,1.316,0,0,1,34.259,26.838ZM.482,26.6A1.244,1.244,0,0,1,0,25.612v-20A1.271,1.271,0,0,1,1.282,4.353h.93V20.131A3.252,3.252,0,0,0,5.48,23.344c2.531.005,6.706.492,9.661,3.238a31.4,31.4,0,0,0-13.572.257,1.323,1.323,0,0,1-.289.032A1.289,1.289,0,0,1,.482,26.6ZM18.909,5.8a1.2,1.2,0,0,1,.176-.638C21.916.687,27.356.007,30.348,0h0a1.276,1.276,0,0,1,.9.365,1.241,1.241,0,0,1,.378.893V20.131a1.273,1.273,0,0,1-1.283,1.258c-2.984.007-7.985.618-11.433,4.161ZM5.486,21.389A1.273,1.273,0,0,1,4.2,20.131V1.259A1.239,1.239,0,0,1,4.579.365,1.282,1.282,0,0,1,5.478,0h0c2.991.007,8.431.687,11.261,5.162a1.19,1.19,0,0,1,.177.638V25.55C13.469,22.007,8.47,21.4,5.486,21.389Z" transform="translate(73.5 73.5)" fill="#fff"/>
      </g>
    </g>
  </g>
</svg>
