<svg xmlns="http://www.w3.org/2000/svg" width="21.815" height="21.812" viewBox="0 0 21.815 21.812">
  <g id="calcolter" transform="translate(-423 -538.003)">
    <path id="Path_5112" d="M20,21.812H11.272A1.828,1.828,0,0,1,9.49,20.358H1.818A1.822,1.822,0,0,1,0,18.54V1.815A1.823,1.823,0,0,1,1.818,0h9.469a.376.376,0,0,1,.1.019l.033.013A.359.359,0,0,1,11.527.1L15.9,4.467a.375.375,0,0,1,.074.107l0,.01a.059.059,0,0,1,.007.024A.361.361,0,0,1,16,4.7V6.542h4A1.823,1.823,0,0,1,21.815,8.36V20A1.824,1.824,0,0,1,20,21.812ZM11.272,7.269A1.092,1.092,0,0,0,10.181,8.36V20a1.094,1.094,0,0,0,1.091,1.088H20A1.094,1.094,0,0,0,21.088,20l0-11.637A1.092,1.092,0,0,0,20,7.269ZM1.818.724A1.092,1.092,0,0,0,.727,1.815V18.54a1.092,1.092,0,0,0,1.091,1.091H9.453V8.36a1.824,1.824,0,0,1,1.82-1.818h4V5.087H12A1.091,1.091,0,0,1,10.908,4V.724Zm9.817.514h0V4A.364.364,0,0,0,12,4.36h2.758Z" transform="translate(423 538.003)" fill="#ff2d55"/>
    <path id="Path_5113" d="M7.635,5.09H1.818A1.822,1.822,0,0,1,0,3.272V1.818A1.822,1.822,0,0,1,1.818,0H7.635A1.822,1.822,0,0,1,9.453,1.818V3.272A1.822,1.822,0,0,1,7.635,5.09ZM1.818.727A1.091,1.091,0,0,0,.727,1.818V3.272A1.092,1.092,0,0,0,1.818,4.363H7.635A1.092,1.092,0,0,0,8.726,3.272V1.818A1.093,1.093,0,0,0,7.635.727Z" transform="translate(433.908 545.999)" fill="#ff2d55"/>
    <path id="Path_5114" d="M1.454,2.908A1.454,1.454,0,1,1,2.909,1.454,1.456,1.456,0,0,1,1.454,2.908Zm0-2.18a.726.726,0,1,0,.727.726A.727.727,0,0,0,1.454.729Z" transform="translate(433.908 551.816)" fill="#ff2d55"/>
    <path id="Path_5115" d="M1.455,2.907A1.454,1.454,0,1,1,2.908,1.454,1.456,1.456,0,0,1,1.455,2.907Zm0-2.179A.735.735,0,0,0,.939.94.728.728,0,1,0,1.733.784.715.715,0,0,0,1.455.728Z" transform="translate(437.181 551.816)" fill="#ff2d55"/>
    <path id="Path_5116" d="M1.454,2.907A1.453,1.453,0,1,1,2.909,1.455,1.455,1.455,0,0,1,1.454,2.907Zm0-2.18a.727.727,0,1,0,.727.727A.728.728,0,0,0,1.454.727Z" transform="translate(433.908 555.452)" fill="#ff2d55"/>
    <path id="Path_5117" d="M1.455,2.908A1.453,1.453,0,1,1,2.908,1.454,1.456,1.456,0,0,1,1.455,2.908Zm0-2.18a.729.729,0,1,0,.28.056A.722.722,0,0,0,1.453.728Z" transform="translate(437.181 555.452)" fill="#ff2d55"/>
    <path id="Path_5118" d="M1.454,6.544A1.456,1.456,0,0,1,0,5.09V1.454A1.453,1.453,0,0,1,1.454,0,1.465,1.465,0,0,1,2.483.425a1.445,1.445,0,0,1,.426,1.029V5.09A1.456,1.456,0,0,1,1.454,6.544Zm0-5.818a.728.728,0,0,0-.727.727V5.09a.727.727,0,1,0,1.454,0V1.454A.728.728,0,0,0,1.454.727Z" transform="translate(440.452 551.816)" fill="#ff2d55"/>
    <path id="Path_5119" d="M.1,3.879a.364.364,0,0,0,.514,0L3.895.607A.364.364,0,0,0,3.381.093L.109,3.365a.364.364,0,0,0,0,.514Z" transform="translate(426.639 540.559)" fill="#ff2d55"/>
    <path id="Path_5120" d="M1.091,2.181A1.091,1.091,0,1,1,2.182,1.091,1.092,1.092,0,0,1,1.091,2.181Zm0-1.454a.364.364,0,1,0,.365.364A.364.364,0,0,0,1.09.727Z" transform="translate(428.817 542.727)" fill="#ff2d55"/>
    <path id="Path_5121" d="M1.091,2.182A1.091,1.091,0,1,1,2.182,1.091,1.092,1.092,0,0,1,1.091,2.182Zm0-1.455a.365.365,0,1,0,.364.365A.363.363,0,0,0,1.091.727Z" transform="translate(426.272 540.182)" fill="#ff2d55"/>
    <path id="Path_5122" d="M.383.863H4.746a.364.364,0,1,0,0-.727H.383a.364.364,0,1,0,0,.727Z" transform="translate(425.163 546.954)" fill="#ff2d55"/>
    <path id="Path_5123" d="M5.473.137H.383a.364.364,0,1,0,0,.727h5.09a.364.364,0,1,0,0-.727Z" transform="translate(425.163 548.408)" fill="#ff2d55"/>
    <path id="Path_5124" d="M1.837.137H.383a.364.364,0,1,0,0,.727H1.837a.364.364,0,1,0,0-.727Z" transform="translate(425.163 549.862)" fill="#ff2d55"/>
    <path id="Path_5125" d="M2.565.137H.383a.364.364,0,1,0,0,.727H2.565a.364.364,0,1,0,0-.727Z" transform="translate(428.07 549.862)" fill="#ff2d55"/>
  </g>
</svg>
