<svg id="call" xmlns="http://www.w3.org/2000/svg" width="19.442" height="19.442" viewBox="0 0 19.442 19.442">
  <path id="Path" d="M15.12,19.442A10.876,10.876,0,0,1,10,18.157l-.486-.27A19.44,19.44,0,0,1,1.6,9.97l-.27-.486A10.876,10.876,0,0,1,0,4.322V3.6A2.16,2.16,0,0,1,.637,2.065L2.462.239A.81.81,0,0,1,3.737.4L6.167,4.57a1.08,1.08,0,0,1-.173,1.307L3.953,7.918a.54.54,0,0,0-.1.637l.378.713a14.612,14.612,0,0,0,5.94,5.929l.713.389a.54.54,0,0,0,.637-.1l2.041-2.041a1.08,1.08,0,0,1,1.307-.173l4.169,2.43a.81.81,0,0,1,.162,1.274L17.377,18.8a2.16,2.16,0,0,1-1.534.637Z" fill="#95a2b5"/>
</svg>
