<svg xmlns="http://www.w3.org/2000/svg" xmlns:xlink="http://www.w3.org/1999/xlink" width="18" height="23.999" viewBox="0 0 18 23.999">
  <defs>
    <linearGradient id="linear-gradient" x1="1" y1="1" x2="0" gradientUnits="objectBoundingBox">
      <stop offset="0" stop-color="#0c9ee2"/>
      <stop offset="1" stop-color="#00d0d3"/>
    </linearGradient>
  </defs>
  <path id="certification_" data-name="certification " d="M.5,24a.5.5,0,0,1-.5-.5V.5A.5.5,0,0,1,.5,0h17a.5.5,0,0,1,.5.5v23a.5.5,0,0,1-.5.5ZM1,23H17V1H1Zm6.5-3a.5.5,0,0,1,0-1h2a.5.5,0,0,1,0,1Zm-2-2a.5.5,0,0,1,0-1h6a.5.5,0,0,1,0,1Zm-1-3a.5.5,0,1,1,0-1h8a.5.5,0,0,1,0,1Zm10.777-4.053L13.5,10.058l-1.776.889A.515.515,0,0,1,11.5,11a.5.5,0,0,1-.485-.621l.957-3.822a.873.873,0,0,1-.323-.2,1.228,1.228,0,0,1-.306-.738l-.005-.03a.98.98,0,0,0-.036-.173,1.1,1.1,0,0,0-.105-.155,1.241,1.241,0,0,1-.315-.755,1.245,1.245,0,0,1,.313-.754.952.952,0,0,0,.107-.158,1.05,1.05,0,0,0,.037-.176l0-.025a1.211,1.211,0,0,1,.306-.738,1.229,1.229,0,0,1,.738-.306,1.225,1.225,0,0,0,.2-.041,1.134,1.134,0,0,0,.158-.108,1.245,1.245,0,0,1,.752-.312,1.242,1.242,0,0,1,.752.312,1.075,1.075,0,0,0,.159.108,1.219,1.219,0,0,0,.2.041,1.227,1.227,0,0,1,.739.306,1.236,1.236,0,0,1,.305.732v.006l0,.022a1.023,1.023,0,0,0,.038.18.919.919,0,0,0,.107.158,1.258,1.258,0,0,1,.312.754,1.242,1.242,0,0,1-.312.752l-.013.017a.879.879,0,0,0-.095.141.964.964,0,0,0-.037.172l0,.031,0,.009a1.226,1.226,0,0,1-.3.729.919.919,0,0,1-.322.2l.957,3.823a.5.5,0,0,1-.172.511A.517.517,0,0,1,15.5,11,.5.5,0,0,1,15.277,10.948Zm-1.553-1.9,1.028.514-.661-2.645a.979.979,0,0,1-1.181,0l-.661,2.645,1.029-.514a.5.5,0,0,1,.446,0ZM12.519,5.667h.005l.012,0,.015,0a1.767,1.767,0,0,1,.419.1,1.711,1.711,0,0,1,.374.23l.011.008a1.109,1.109,0,0,0,.167.11c0-.022.087-.086.13-.116a1.712,1.712,0,0,1,.376-.231,1.761,1.761,0,0,1,.412-.1l.023,0a1.023,1.023,0,0,0,.205-.042h-.005a.451.451,0,0,1,.006-.163l0-.029a1.758,1.758,0,0,1,.1-.407A1.823,1.823,0,0,1,15,4.655a1.73,1.73,0,0,0,.108-.154,1.433,1.433,0,0,0-.107-.155,1.785,1.785,0,0,1-.229-.374,1.775,1.775,0,0,1-.1-.408l0-.028a.983.983,0,0,0-.041-.2l0,.006h0c0,.005-.014.007-.032.007a1.014,1.014,0,0,1-.132-.015l-.014,0a1.723,1.723,0,0,1-.42-.1A1.7,1.7,0,0,1,13.656,3a1.086,1.086,0,0,0-.177-.118c0,.019-.073.073-.126.112l0,0a1.775,1.775,0,0,1-.375.231,1.818,1.818,0,0,1-.418.1l-.017,0-.019,0a.994.994,0,0,0-.186.04h.005a.434.434,0,0,1-.006.164l0,.008a1.717,1.717,0,0,1-.1.428A1.767,1.767,0,0,1,12,4.345l-.01.014a.942.942,0,0,0-.108.166c.018,0,.069.067.116.13a1.844,1.844,0,0,1,.231.374,1.768,1.768,0,0,1,.1.418l0,.018a.875.875,0,0,0,.042.2.01.01,0,0,1,0-.007s.013-.007.031-.007A.833.833,0,0,1,12.519,5.667ZM2.5,4a.5.5,0,1,1,0-1h4a.5.5,0,1,1,0,1Z" transform="translate(0.001)" fill="url(#linear-gradient)"/>
</svg>
