<svg xmlns="http://www.w3.org/2000/svg" xmlns:xlink="http://www.w3.org/1999/xlink" width="174.979" height="166.945" viewBox="0 0 174.979 166.945">
  <defs>
    <linearGradient id="linear-gradient" y1="1" x2="1" gradientUnits="objectBoundingBox">
      <stop offset="0" stop-color="#05a4d1"/>
      <stop offset="1" stop-color="#00d0d3"/>
    </linearGradient>
    <filter id="Combined_Shape" x="0" y="0" width="174.979" height="166.945" filterUnits="userSpaceOnUse">
      <feOffset input="SourceAlpha"/>
      <feGaussianBlur stdDeviation="24.5" result="blur"/>
      <feFlood flood-color="#101d71" flood-opacity="0.078"/>
      <feComposite operator="in" in2="blur"/>
      <feComposite in="SourceGraphic"/>
    </filter>
  </defs>
  <g id="check_hand" data-name="check hand" transform="translate(101.479 73.5)">
    <g transform="matrix(1, 0, 0, 1, -101.48, -73.5)" filter="url(#Combined_Shape)">
      <path id="Combined_Shape-2" data-name="Combined Shape" d="M-15.925,19.944a1.276,1.276,0,0,0,.858-.382l.781-.781,5.638-5.638a.42.42,0,0,1,.594,0,.42.42,0,0,1,0,.594l-3.782,3.782,0,0a1.276,1.276,0,0,0-.382.858,1.06,1.06,0,0,0,.3.8l.024.024a1.175,1.175,0,0,0,1.652-.076l.416-.414,0,0L-7.88,16.77a.418.418,0,0,1,.152-.152c1.94-1.939,4.293-4.3,6.471-6.478a3.95,3.95,0,0,0,.209-5.565L-4.573,1.049A3.755,3.755,0,0,0-8.384.19l-4.209,1.327,2.432.767a.419.419,0,0,1,.292.44l-.055.59a2.619,2.619,0,0,1-.9,1.879,2.663,2.663,0,0,1-2.03.632l-.348-.034-.493.494-6.59,6.6a1.174,1.174,0,0,0-.076,1.653l0,0a1.17,1.17,0,0,0,1.617-.046l2.339-2.337,3.381-3.381a.421.421,0,0,1,.407-.113.42.42,0,0,1,.3.3.422.422,0,0,1-.111.408c-.146.148-1.646,1.647-3.383,3.384l-2.285,2.284-.019.019c-.014.015-.03.03-.044.043L-19.8,16.74a1.175,1.175,0,0,0-.076,1.654l.025.025a1.175,1.175,0,0,0,1.654-.077l7.372-7.372a.42.42,0,0,1,.594,0,.42.42,0,0,1,0,.594l-6.416,6.416,0,0a1.276,1.276,0,0,0-.382.858,1.05,1.05,0,0,0,.305.8,1.051,1.051,0,0,0,.742.308Zm3.44-.15-.024-.023a1.868,1.868,0,0,1-.528-1.049l-.357.356.485.484a1.293,1.293,0,0,0,.523.322C-12.421,19.856-12.454,19.826-12.486,19.794Zm4.356-1.374.025-.026a1.032,1.032,0,0,0,.272-.483l-.782.781A1.042,1.042,0,0,0-8.13,18.419Zm-12.262-2.273.487-.487a1.875,1.875,0,0,1-1.049-.527l0,0a2.015,2.015,0,0,1,.079-2.839l6.295-6.3-.474-.475a.42.42,0,0,1-.083-.477.42.42,0,0,1,.42-.239l1.95.192a1.834,1.834,0,0,0,1.4-.429,1.792,1.792,0,0,0,.609-1.292c0-.007,0-.014,0-.021l.025-.264L-14.108,1.92h0L-19.595.19a3.755,3.755,0,0,0-3.811.859l-3.525,3.525a3.95,3.95,0,0,0,.209,5.565c2.112,2.117,4.312,4.32,6.174,6.181C-20.5,16.26-20.446,16.2-20.391,16.146Z" transform="translate(101.48 73.5)" fill="url(#linear-gradient)"/>
    </g>
  </g>
</svg>
