<svg xmlns="http://www.w3.org/2000/svg" xmlns:xlink="http://www.w3.org/1999/xlink" width="184.579" height="173.789" viewBox="0 0 184.579 173.789">
  <defs>
    <filter id="Combined_Shape" x="0" y="0" width="184.579" height="173.789" filterUnits="userSpaceOnUse">
      <feOffset input="SourceAlpha"/>
      <feGaussianBlur stdDeviation="24.5" result="blur"/>
      <feFlood flood-color="#101d71" flood-opacity="0.078"/>
      <feComposite operator="in" in2="blur"/>
      <feComposite in="SourceGraphic"/>
    </filter>
  </defs>
  <g id="check_hand-wight" data-name="check hand-wight" transform="translate(73.5 73.5)">
    <g transform="matrix(1, 0, 0, 1, -73.5, -73.5)" filter="url(#Combined_Shape)">
      <path id="Combined_Shape-2" data-name="Combined Shape" d="M16.189,26.787a1.714,1.714,0,0,0,1.152-.513l1.049-1.049,7.572-7.572a.564.564,0,0,1,.8.8L21.68,23.53s0,0,0,0a1.714,1.714,0,0,0-.513,1.152,1.424,1.424,0,0,0,.409,1.07l.033.033a1.578,1.578,0,0,0,2.218-.1l.558-.556,0,0c.762-.759,1.645-1.642,2.61-2.6a.561.561,0,0,1,.2-.2c2.606-2.6,5.766-5.77,8.691-8.7a5.306,5.306,0,0,0,.28-7.474L31.437,1.409A5.044,5.044,0,0,0,26.319.255L20.665,2.037l3.266,1.03a.563.563,0,0,1,.392.591l-.074.793a3.518,3.518,0,0,1-1.205,2.524,3.576,3.576,0,0,1-2.726.849l-.468-.046-.662.664L10.337,17.3a1.577,1.577,0,0,0-.1,2.221l0,0a1.572,1.572,0,0,0,2.172-.062l3.142-3.139C17.882,14,19.9,11.983,20.092,11.787a.564.564,0,1,1,.8.794c-.2.2-2.211,2.212-4.544,4.545l-3.069,3.068-.025.025c-.019.021-.04.04-.059.058-.822.822-1.585,1.584-2.206,2.206a1.578,1.578,0,0,0-.1,2.222l.034.034a1.579,1.579,0,0,0,2.222-.1l9.9-9.9a.564.564,0,0,1,.8.8l-8.618,8.618,0,0a1.714,1.714,0,0,0-.513,1.152,1.408,1.408,0,0,0,1.406,1.484Zm4.62-.2-.033-.031a2.509,2.509,0,0,1-.71-1.408l-.48.479.652.65a1.737,1.737,0,0,0,.7.433C20.9,26.668,20.851,26.629,20.809,26.585Zm5.851-1.846.034-.035a1.386,1.386,0,0,0,.365-.649L26.008,25.1A1.4,1.4,0,0,0,26.659,24.739ZM10.191,21.686l.654-.654a2.519,2.519,0,0,1-1.408-.708l0,0a2.707,2.707,0,0,1,.106-3.813l8.454-8.465L17.355,7.4a.564.564,0,0,1,.453-.961l2.619.257A2.463,2.463,0,0,0,22.3,6.124a2.407,2.407,0,0,0,.818-1.736c0-.01,0-.018,0-.028l.034-.354L18.629,2.578h0L11.26.255A5.044,5.044,0,0,0,6.142,1.409L1.407,6.144a5.306,5.306,0,0,0,.28,7.474c2.837,2.843,5.791,5.8,8.292,8.3C10.047,21.839,10.117,21.761,10.191,21.686Z" transform="translate(73.5 73.5)" fill="#fff"/>
    </g>
  </g>
</svg>
