<svg xmlns="http://www.w3.org/2000/svg" xmlns:xlink="http://www.w3.org/1999/xlink" width="123.578" height="123.576" viewBox="0 0 123.578 123.576">
  <defs>
    <linearGradient id="linear-gradient" x1="0.001" y1="0.999" x2="0.999" y2="0.001" gradientUnits="objectBoundingBox">
      <stop offset="0" stop-color="#09cdd1"/>
      <stop offset="0.417" stop-color="#14d8bf"/>
      <stop offset="1" stop-color="#24e8a6"/>
    </linearGradient>
  </defs>
  <path id="check-full" d="M61.789,123.576a61.509,61.509,0,0,1-34.548-10.553A61.972,61.972,0,0,1,4.855,85.839a61.705,61.705,0,0,1,5.7-58.6A61.96,61.96,0,0,1,37.737,4.856a61.784,61.784,0,0,1,75.287,91.478,61.961,61.961,0,0,1-27.186,22.386A61.4,61.4,0,0,1,61.789,123.576ZM40.348,59.369a2.977,2.977,0,0,0-2.162.936l-3.276,3.274a3.092,3.092,0,0,0,0,4.387L49.616,82.488a2.967,2.967,0,0,0,4.326,0L88.667,47.762a3.087,3.087,0,0,0,0-4.264l-3.275-3.274a3.089,3.089,0,0,0-4.326,0L51.779,69.511,42.511,60.3A2.984,2.984,0,0,0,40.348,59.369Z" transform="translate(0.001 0)" fill="url(#linear-gradient)"/>
</svg>
