<svg xmlns="http://www.w3.org/2000/svg" width="34" height="33" viewBox="0 0 34 33">
  <path id="coine-money" d="M18.143,32.052a11.286,11.286,0,0,1-3.677-2.573H6.64a3.032,3.032,0,0,1-3.055-3,2.966,2.966,0,0,1,1.157-2.347,2.962,2.962,0,0,1,0-4.7,2.961,2.961,0,0,1,0-4.7,2.967,2.967,0,0,1-1.157-2.348,3.031,3.031,0,0,1,3.055-3H8.373A2.948,2.948,0,0,1,8.373,6H3.055A3.032,3.032,0,0,1,0,3,3.031,3.031,0,0,1,3.055,0H19.324a3.031,3.031,0,0,1,3.055,3,2.938,2.938,0,0,1-.536,1.7H27.16a3,3,0,1,1,0,6H25.431a3.03,3.03,0,0,1,.3.533A11.394,11.394,0,0,1,31.65,15.15,10.846,10.846,0,0,1,34,21.913,11.2,11.2,0,0,1,22.711,33,11.357,11.357,0,0,1,18.143,32.052ZM12.75,21.913a9.962,9.962,0,1,0,9.96-9.783A9.884,9.884,0,0,0,12.75,21.913ZM4.914,26.478a1.713,1.713,0,0,0,1.726,1.7H13.4a10.924,10.924,0,0,1-1.593-3.391H6.64A1.713,1.713,0,0,0,4.914,26.478Zm0-4.7a1.713,1.713,0,0,0,1.726,1.7h4.9a10.862,10.862,0,0,1-.113-1.565,10.992,10.992,0,0,1,.154-1.826H6.64A1.713,1.713,0,0,0,4.914,21.783Zm0-4.7a1.713,1.713,0,0,0,1.726,1.7h5.241a10.968,10.968,0,0,1,1.706-3.392H6.64A1.713,1.713,0,0,0,4.914,17.087Zm0-4.7a1.713,1.713,0,0,0,1.726,1.7h8.082a11.315,11.315,0,0,1,7.988-3.261c.305,0,.625.014.953.04a1.746,1.746,0,0,0-.753-.17H6.64A1.713,1.713,0,0,0,4.914,12.391Zm4.25-4.7a1.713,1.713,0,0,0,1.727,1.7H27.16A1.7,1.7,0,1,0,27.16,6H10.891A1.713,1.713,0,0,0,9.164,7.7ZM1.328,3A1.713,1.713,0,0,0,3.055,4.7H19.324A1.713,1.713,0,0,0,21.051,3a1.713,1.713,0,0,0-1.727-1.7H3.055A1.713,1.713,0,0,0,1.328,3ZM21.67,30.391a.652.652,0,1,1,.006-1.3h.039a.652.652,0,1,1,0,1.3Zm-2.7-.833a8.609,8.609,0,0,1-3.534-3.073,8.355,8.355,0,0,1-.356-8.55.67.67,0,0,1,.9-.27.646.646,0,0,1,.275.882,7.085,7.085,0,0,0-.851,3.365,7.207,7.207,0,0,0,4.145,6.469.648.648,0,0,1,.31.87.665.665,0,0,1-.6.37A.68.68,0,0,1,18.975,29.559Zm3.069-3.039v-.282a2.607,2.607,0,0,1-2.125-2.472.664.664,0,0,1,1.328,0,1.48,1.48,0,0,0,2.921,0,1.366,1.366,0,0,0-1.461-1.242,2.679,2.679,0,0,1-2.789-2.546A2.608,2.608,0,0,1,22.044,17.5v-.339a.664.664,0,0,1,1.328,0V17.5A2.609,2.609,0,0,1,25.5,19.977a.664.664,0,0,1-1.328,0,1.48,1.48,0,0,0-2.921,0,1.366,1.366,0,0,0,1.461,1.242A2.679,2.679,0,0,1,25.5,23.765a2.608,2.608,0,0,1-2.125,2.472v.282a.664.664,0,0,1-1.328,0Zm7.394-.36a.646.646,0,0,1-.274-.882,7.092,7.092,0,0,0,.851-3.364,7.209,7.209,0,0,0-4.145-6.47.647.647,0,0,1-.311-.87.67.67,0,0,1,.886-.305,8.6,8.6,0,0,1,3.534,3.072,8.357,8.357,0,0,1,.355,8.551.671.671,0,0,1-.9.269Zm-5.693-11.42h-.039a.652.652,0,1,1,0-1.3h.045a.652.652,0,1,1,0,1.3Z" fill="#fff"/>
</svg>
