<svg xmlns="http://www.w3.org/2000/svg" width="21.6" height="24" viewBox="0 0 21.6 24">
  <path id="dashboard" d="M19.2,24H14.4A2.4,2.4,0,0,1,12,21.6V18a2.4,2.4,0,0,1,2.4-2.4h4.8A2.4,2.4,0,0,1,21.6,18v3.6A2.4,2.4,0,0,1,19.2,24Zm-4.8-6v3.6h4.8V18ZM7.2,24H2.4A2.4,2.4,0,0,1,0,21.6V13.2a2.4,2.4,0,0,1,2.4-2.4H7.2a2.4,2.4,0,0,1,2.4,2.4v8.4A2.4,2.4,0,0,1,7.2,24ZM2.4,13.2v8.4H7.2V13.2Zm16.8,0H14.4A2.4,2.4,0,0,1,12,10.8V2.4A2.4,2.4,0,0,1,14.4,0h4.8a2.4,2.4,0,0,1,2.4,2.4v8.4A2.4,2.4,0,0,1,19.2,13.2ZM14.4,2.4v8.4h4.8V2.4Zm-7.2,6H2.4A2.4,2.4,0,0,1,0,6V2.4A2.4,2.4,0,0,1,2.4,0H7.2A2.4,2.4,0,0,1,9.6,2.4V6A2.4,2.4,0,0,1,7.2,8.4Zm-4.8-6V6H7.2V2.4Z" fill="#fff"/>
</svg>
