<svg xmlns="http://www.w3.org/2000/svg" width="21.553" height="17.241" viewBox="0 0 21.553 17.241">
  <g id="email-outlined" transform="translate(0 0)">
    <path id="Shape" d="M19.4,17.241H2.156A2.157,2.157,0,0,1,0,15.088V2.156A2.158,2.158,0,0,1,2.156,0H19.4a2.158,2.158,0,0,1,2.156,2.156V15.088A2.157,2.157,0,0,1,19.4,17.241ZM2.156,7.542h0v7.545H19.4V7.543l-6.845,4.786a3.1,3.1,0,0,1-3.555,0L2.156,7.543Zm0-5.386V5.281l7.919,5.55a1.226,1.226,0,0,0,1.4,0L19.4,5.281V2.156Z" transform="translate(0 0)" fill="#95a2b5"/>
  </g>
</svg>
