<svg id="eye" xmlns="http://www.w3.org/2000/svg" width="24" height="24" viewBox="0 0 24 24">
  <path id="Path" d="M0,0H24V24H0Z" fill="none"/>
  <path id="Path-2" data-name="Path" d="M0,0H24V24H0Z" fill="none"/>
  <path id="Combined_Shape" data-name="Combined Shape" d="M10,16A9.657,9.657,0,0,1,4.156,13.98,12.771,12.771,0,0,1,.109,8.563a1.5,1.5,0,0,1,0-1.125A12.769,12.769,0,0,1,4.156,2.02,9.657,9.657,0,0,1,10,0a9.657,9.657,0,0,1,5.844,2.02,12.769,12.769,0,0,1,4.046,5.417,1.5,1.5,0,0,1,0,1.125,12.771,12.771,0,0,1-4.046,5.417A9.657,9.657,0,0,1,10,16ZM10,1.85C6.571,1.85,3.448,4.207,1.85,8c1.6,3.793,4.721,6.15,8.15,6.15S16.55,11.793,18.15,8C16.551,4.207,13.428,1.85,10,1.85Zm0,9.8A3.647,3.647,0,1,1,13.582,8,3.619,3.619,0,0,1,10,11.646ZM10,6.2A1.8,1.8,0,1,0,11.764,8,1.783,1.783,0,0,0,10,6.2Z" transform="translate(2.001 4)" fill="#c2d2ed"/>
</svg>
