<svg xmlns="http://www.w3.org/2000/svg" xmlns:xlink="http://www.w3.org/1999/xlink" width="27" height="27" viewBox="0 0 27 27">
  <defs>
    <linearGradient id="linear-gradient" x1="1" y1="1" x2="0" gradientUnits="objectBoundingBox">
      <stop offset="0" stop-color="#05a4d1"/>
      <stop offset="1" stop-color="#00d0d3"/>
    </linearGradient>
  </defs>
  <path id="Grows" d="M15.37,27a1.362,1.362,0,0,1-1.345-1.341V14.521A1.361,1.361,0,0,1,15.37,13.18v-.059h3.272a1.36,1.36,0,0,1,1.344,1.341v11.2A1.36,1.36,0,0,1,18.643,27Zm-.175-12.538V25.6a.186.186,0,0,0,.175.175h3.272a.186.186,0,0,0,.175-.175V14.462c0-.058-.057-.116-.175-.175H15.37A.186.186,0,0,0,15.195,14.462ZM1.345,27A1.36,1.36,0,0,1,0,25.659v-7.29a1.36,1.36,0,0,1,1.345-1.341H4.617a1.36,1.36,0,0,1,1.344,1.341v7.29A1.36,1.36,0,0,1,4.617,27Zm-.234-8.631v7.29a.186.186,0,0,0,.176.175H4.559a.186.186,0,0,0,.175-.175v-7.29a.155.155,0,0,0-.175-.175H1.286A.186.186,0,0,0,1.111,18.369Zm21.273,8.573A1.389,1.389,0,0,1,21.039,25.6V7.406a1.36,1.36,0,0,1,1.345-1.341h3.272A1.36,1.36,0,0,1,27,7.406V25.6a1.361,1.361,0,0,1-1.344,1.342ZM22.267,7.406V25.6a.186.186,0,0,0,.175.176h3.273a.186.186,0,0,0,.176-.176V7.406a.185.185,0,0,0-.176-.175H22.441A.185.185,0,0,0,22.267,7.406ZM8.357,26.941A1.36,1.36,0,0,1,7.013,25.6V10.613A1.361,1.361,0,0,1,8.357,9.272H11.63a1.361,1.361,0,0,1,1.344,1.341V25.6a1.36,1.36,0,0,1-1.344,1.341ZM8.123,10.613V25.6a.185.185,0,0,0,.176.175h3.272a.186.186,0,0,0,.175-.175V10.613a.155.155,0,0,0-.175-.175H8.3A.186.186,0,0,0,8.123,10.613Zm-6.6,1.808a1.421,1.421,0,0,1,1.4-1.4.738.738,0,0,1,.35.059L8.649,4.666a1.725,1.725,0,0,1-.116-.583,1.4,1.4,0,0,1,2.8,0V4.2L16.13,6.764a1.439,1.439,0,0,1,.877-.292,1.05,1.05,0,0,1,.584.117l5.085-4.724c0-.175-.059-.292-.059-.466a1.4,1.4,0,0,1,2.805,0,1.421,1.421,0,0,1-1.4,1.4.874.874,0,0,1-.526-.116L18.351,7.406c0,.175.059.292.059.466a1.4,1.4,0,0,1-2.805,0V7.756L10.812,5.19a1.439,1.439,0,0,1-.877.292.742.742,0,0,1-.351-.059L4.207,11.838a1.724,1.724,0,0,1,.117.583,1.42,1.42,0,0,1-1.4,1.4A1.421,1.421,0,0,1,1.519,12.421Z" fill="url(#linear-gradient)"/>
</svg>
