<svg xmlns="http://www.w3.org/2000/svg" width="48" height="50" viewBox="0 0 48 50">
  <path id="logout-big" d="M0,27.083A22.913,22.913,0,0,1,14.4,6.074a2.222,2.222,0,0,1,2.873,1.074,2.048,2.048,0,0,1-1.125,2.743A18.75,18.75,0,0,0,4.364,27.083c0,10.356,8.791,18.75,19.636,18.75s19.636-8.4,19.636-18.75A18.746,18.746,0,0,0,31.852,9.892a2.048,2.048,0,0,1-1.126-2.743A2.223,2.223,0,0,1,33.6,6.074,22.911,22.911,0,0,1,48,27.083C48,39.74,37.254,50,24,50S0,39.74,0,27.083Zm21.817-6.25V2.083a2.184,2.184,0,0,1,4.363,0v18.75a2.184,2.184,0,0,1-4.363,0Z" fill="#f04"/>
</svg>
