<svg xmlns="http://www.w3.org/2000/svg" width="19.2" height="20.2" viewBox="0 0 19.2 20.2">
  <path id="logout" d="M0,10.833a9.165,9.165,0,0,1,5.7-8.4.876.876,0,0,1,1.137.429.821.821,0,0,1-.445,1.1,7.5,7.5,0,0,0-4.664,6.877,7.64,7.64,0,0,0,7.773,7.5,7.64,7.64,0,0,0,7.772-7.5,7.5,7.5,0,0,0-4.665-6.876.822.822,0,0,1-.445-1.1A.875.875,0,0,1,13.3,2.43a9.163,9.163,0,0,1,5.7,8.4A9.338,9.338,0,0,1,9.5,20,9.338,9.338,0,0,1,0,10.833Zm8.636-2.5V.833a.864.864,0,0,1,1.727,0v7.5a.864.864,0,0,1-1.727,0Z" transform="translate(0.1 0.1)" fill="#f04" stroke="#f04" stroke-linejoin="round" stroke-miterlimit="10" stroke-width="0.2"/>
</svg>
