<svg xmlns="http://www.w3.org/2000/svg" width="514.386" height="292.812" viewBox="0 0 514.386 292.812">
  <g id="Main_pages" transform="translate(0 -0.788)">
    <g id="dashboard_members_empty" transform="translate(-360 -320)">
      <g id="Group-53" transform="translate(360 320)">
        <g id="Group-44">
          <g id="Group_1" data-name="Group 1">
            <path id="Fill-1" d="M320.087,221.08c-.155-.087,14.622-26.816,33-59.7S386.5,101.911,386.652,102s-14.619,26.812-33,59.7-33.406,59.468-33.561,59.381" fill="#acbbd0" fill-rule="evenodd"/>
            <path id="Fill-3" d="M475.165,192.056a11.526,11.526,0,0,0,6.867-10.663c.026-6.367-4.791-11.55-10.762-11.578s-10.831,5.111-10.855,11.478a11.508,11.508,0,0,0,6.887,10.763c-16.633,2.505-15.879,20.585-15.879,20.585l39.334.18s.9-18.275-15.592-20.765" fill="#acbbd0" fill-rule="evenodd"/>
            <g id="Group-7" transform="translate(427.616 149.267)">
              <path id="Fill-5" d="M43.476,1.364a42.061,42.061,0,1,0,42.06,42.061A42.108,42.108,0,0,0,43.476,1.364m0,85.355A43.294,43.294,0,1,1,86.77,43.425,43.342,43.342,0,0,1,43.476,86.719" fill="#acbbd0" fill-rule="evenodd"/>
            </g>
            <path id="Fill-8" d="M43.273,89.07a10.519,10.519,0,0,0,6.267-9.728c.023-5.81-4.373-10.54-9.82-10.565s-9.881,4.664-9.906,10.473A10.5,10.5,0,0,0,36.1,89.07C20.922,91.357,21.61,107.851,21.61,107.851l35.89.165s.818-16.675-14.227-18.947" fill="#acbbd0" fill-rule="evenodd"/>
            <g id="Group-12" transform="translate(0 49.345)">
              <path id="Fill-10" d="M39.556,1.982A38.323,38.323,0,1,0,77.878,40.305,38.367,38.367,0,0,0,39.556,1.982m0,77.88A39.557,39.557,0,1,1,79.111,40.305,39.6,39.6,0,0,1,39.556,79.862" fill="#acbbd0" fill-rule="evenodd"/>
            </g>
            <path id="Fill-13" d="M394.936,69.556a8.233,8.233,0,0,0,4.9-7.614,7.735,7.735,0,1,0-15.437-.072,8.217,8.217,0,0,0,4.918,7.685c-11.879,1.79-11.34,14.7-11.34,14.7l28.088.13s.641-13.052-11.133-14.829" fill="#acbbd0" fill-rule="evenodd"/>
            <path id="Fill-15" d="M392.027,40.1a29.86,29.86,0,1,0,29.859,29.86A29.892,29.892,0,0,0,392.027,40.1m0,60.954a31.094,31.094,0,1,1,31.092-31.094,31.128,31.128,0,0,1-31.092,31.094" fill="#acbbd0" fill-rule="evenodd"/>
            <path id="Fill-17" d="M311.547,242a6.222,6.222,0,0,0,3.707-5.755,5.846,5.846,0,1,0-11.668-.054A6.211,6.211,0,0,0,307.3,242c-8.978,1.353-8.571,11.11-8.571,11.11l21.23.1s.485-9.864-8.415-11.209" fill="#acbbd0" fill-rule="evenodd"/>
            <path id="Fill-19" d="M309.349,219.736a22.569,22.569,0,1,0,22.568,22.569,22.594,22.594,0,0,0-22.568-22.569m0,46.069a23.5,23.5,0,1,1,23.5-23.5,23.527,23.527,0,0,1-23.5,23.5" fill="#acbbd0" fill-rule="evenodd"/>
            <path id="Fill-21" d="M142.243,161.057a7.262,7.262,0,0,0,4.329-6.722,6.828,6.828,0,1,0-13.629-.063,7.255,7.255,0,0,0,4.342,6.785c-10.485,1.58-10.01,12.978-10.01,12.978l24.8.113s.566-11.521-9.829-13.091" fill="#acbbd0" fill-rule="evenodd"/>
            <path id="Fill-23" d="M139.675,135.17a26.288,26.288,0,1,0,26.287,26.288,26.318,26.318,0,0,0-26.287-26.288m0,53.81A27.522,27.522,0,1,1,167.2,161.458a27.552,27.552,0,0,1-27.521,27.522" fill="#acbbd0" fill-rule="evenodd"/>
            <path id="Fill-25" d="M32.7,273.107a5.289,5.289,0,0,0,3.152-4.893,5.138,5.138,0,0,0-4.939-5.313,5.129,5.129,0,0,0-4.981,5.268,5.28,5.28,0,0,0,3.16,4.938c-7.633,1.151-7.287,9.446-7.287,9.446l18.05.084s.412-8.386-7.155-9.53" fill="#acbbd0" fill-rule="evenodd"/>
            <path id="Fill-27" d="M30.835,254.432A18.967,18.967,0,1,0,49.8,273.4a18.988,18.988,0,0,0-18.967-18.968m0,39.168a20.2,20.2,0,1,1,20.2-20.2,20.223,20.223,0,0,1-20.2,20.2" fill="#acbbd0" fill-rule="evenodd"/>
            <path id="Fill-29" d="M291.115,13.524a3.321,3.321,0,0,0,1.98-3.074,3.122,3.122,0,1,0-6.231-.028,3.317,3.317,0,0,0,1.985,3.1c-4.795.722-4.578,5.934-4.578,5.934l11.339.053s.259-5.269-4.5-5.987" fill="#acbbd0" fill-rule="evenodd"/>
            <g id="Group-33" transform="translate(276.32)">
              <path id="Fill-31" d="M13.621,2.022A11.685,11.685,0,1,0,25.307,13.708,11.7,11.7,0,0,0,13.621,2.022m0,24.6A12.919,12.919,0,1,1,26.54,13.708,12.934,12.934,0,0,1,13.621,26.626" fill="#acbbd0" fill-rule="evenodd"/>
            </g>
            <path id="Fill-34" d="M416.795,89.744c.158-.081,7.839,14.526,17.157,32.623s16.745,32.838,16.587,32.919-7.838-14.524-17.158-32.626-16.743-32.835-16.585-32.917" fill="#acbbd0" fill-rule="evenodd"/>
            <path id="Fill-36" d="M118.626,144.712c-.094.15-11.091-6.578-24.56-15.025s-24.315-15.421-24.22-15.572,11.089,6.576,24.562,15.027,24.314,15.42,24.219,15.571" fill="#acbbd0" fill-rule="evenodd"/>
            <path id="Fill-38" d="M362.592,83.574a3.319,3.319,0,0,1-.509.173l-1.511.442-5.82,1.637c-2.54.667-5.6,1.667-9.173,2.728s-7.628,2.335-12.1,3.769c-17.9,5.683-42.486,13.99-69.548,23.425s-51.5,18.2-69.185,24.538L173.807,147.8l-5.7,2.027-1.488.513a3.309,3.309,0,0,1-.514.154,3.173,3.173,0,0,1,.492-.216c.357-.141.843-.331,1.465-.574l5.657-2.139,20.87-7.708c17.644-6.451,42.056-15.267,69.128-24.718S315.4,97.463,333.343,91.888c4.483-1.406,8.544-2.657,12.133-3.681s6.656-1.991,9.207-2.624l5.857-1.521,1.526-.38a3.232,3.232,0,0,1,.526-.109" fill="#acbbd0" fill-rule="evenodd"/>
            <path id="Fill-40" d="M30.836,253.815c-.176-.023,3.454-28.154,8.106-62.822s8.568-62.765,8.744-62.742-3.453,28.147-8.107,62.828-8.567,62.759-8.742,62.735" fill="#acbbd0" fill-rule="evenodd"/>
            <path id="Fill-42" d="M366.49,53.335c-.077.16-15.137-6.795-33.635-15.534s-33.437-15.954-33.363-16.116S314.625,28.48,333.13,37.22s33.436,15.954,33.36,16.115" fill="#acbbd0" fill-rule="evenodd"/>
          </g>
        </g>
        <path id="Fill-45" d="M179.317,68,183.2,81.6l-13.6-4.9Z" fill="#fafafa" fill-rule="evenodd"/>
        <g id="Group-52" transform="translate(116.8 13.6)">
          <path id="Fill-46" d="M1.122,34.658A34.025,34.025,0,1,0,35.147.425,34.129,34.129,0,0,0,1.122,34.658" fill="#fafafa" fill-rule="evenodd"/>
          <path id="Fill-48" d="M35.145.018a3.22,3.22,0,0,0-.6-.01c-.433.011-1.014.028-1.753.049-.384.017-.818.017-1.29.058L29.961.333q-.84.122-1.8.261l-2.014.5A32.5,32.5,0,0,0,16.379,5.38a35.156,35.156,0,0,0-10.1,9.9A35.7,35.7,0,0,0,.551,31.438a36.133,36.133,0,0,0-.095,4.75c.055.8.039,1.62.156,2.429s.243,1.625.366,2.448A35.067,35.067,0,0,0,4.26,50.732a37.308,37.308,0,0,0,6.277,8.688,36.261,36.261,0,0,0,9.041,6.535,32.694,32.694,0,0,0,11.021,3.4,21.753,21.753,0,0,0,2.939.251,26.488,26.488,0,0,0,2.972.056,35.048,35.048,0,0,0,5.951-.757,34.665,34.665,0,0,0,11.85-5.017l-.36.037q6.161,2.486,12.07,4.874l.714.288-.2-.746L62.984,55.361l-.061.321a34.963,34.963,0,0,0,6.441-14.835,31.759,31.759,0,0,0,.469-7.6,24.471,24.471,0,0,0-.342-3.65q-.138-.895-.274-1.776c-.108-.584-.285-1.15-.422-1.719A34.722,34.722,0,0,0,55.327,6.35,32.969,32.969,0,0,0,47.315,2.1l-1.806-.65L43.8,1.009,42.228.618c-.5-.1-.988-.149-1.442-.22-.913-.116-1.715-.275-2.417-.31L36.594.029,35.512,0a1.6,1.6,0,0,0-.367.014,1.759,1.759,0,0,0,.366.051L36.59.154l1.762.12c.7.054,1.492.232,2.394.366A34.39,34.39,0,0,1,68.19,26.255c.131.559.3,1.115.406,1.69.086.578.173,1.159.26,1.745a23.922,23.922,0,0,1,.319,3.584,31.158,31.158,0,0,1-.489,7.45,34.31,34.31,0,0,1-6.353,14.512l-.108.145.047.177q1.705,6.292,3.522,12.988l.511-.457L54.242,63.2l-.189-.077-.172.112a33.932,33.932,0,0,1-11.585,4.9,34.351,34.351,0,0,1-5.818.741,25.868,25.868,0,0,1-2.9-.053A20.837,20.837,0,0,1,30.7,68.58a32,32,0,0,1-10.778-3.315,35.628,35.628,0,0,1-8.856-6.378A36.591,36.591,0,0,1,4.9,50.4a34.377,34.377,0,0,1-3.245-9.46q-.184-1.206-.368-2.4c-.118-.793-.1-1.594-.162-2.381A35.685,35.685,0,0,1,1.2,31.5,35.236,35.236,0,0,1,6.741,15.585,34.92,34.92,0,0,1,16.617,5.75a32.748,32.748,0,0,1,9.606-4.357L28.213.86,30,.565l1.53-.254c.47-.052.9-.064,1.282-.1L34.551.089a3.409,3.409,0,0,0,.594-.07" fill="#00d1d4" fill-rule="evenodd"/>
          <path id="Fill-50" d="M31.714,47.83A3.459,3.459,0,0,1,32.8,45.275a3.585,3.585,0,0,1,2.61-1.07A3.7,3.7,0,0,1,38,45.228a3.288,3.288,0,0,1,1.109,2.51,3.463,3.463,0,0,1-1.086,2.557,3.588,3.588,0,0,1-2.609,1.068,3.7,3.7,0,0,1-2.588-1.023,3.285,3.285,0,0,1-1.107-2.51Zm.923-6.46V38.815a9.33,9.33,0,0,1,.139-1.766,4.966,4.966,0,0,1,.416-1.255,5.315,5.315,0,0,1,.761-1.115q.486-.558,1.178-1.3l3.556-3.624a4.1,4.1,0,0,0,1.155-3.021,3.921,3.921,0,0,0-1.178-2.951,4.113,4.113,0,0,0-2.979-1.139,4.219,4.219,0,0,0-3.187,1.3A5.265,5.265,0,0,0,31.067,27.2l-5.912-.464a10.388,10.388,0,0,1,3.418-6.947,10.927,10.927,0,0,1,7.345-2.439,11.915,11.915,0,0,1,3.856.6,9.19,9.19,0,0,1,3.095,1.743,7.8,7.8,0,0,1,2.055,2.835,9.618,9.618,0,0,1,.739,3.879,7.985,7.985,0,0,1-.415,2.7,8.815,8.815,0,0,1-1.109,2.138A13.756,13.756,0,0,1,42.545,33.1q-.9.882-1.916,1.859-.648.6-1.11,1.068a5.311,5.311,0,0,0-.762.952,3.59,3.59,0,0,0-.438,1.117A7.112,7.112,0,0,0,38.18,39.6v1.766Z" fill="#00d1d4" fill-rule="evenodd"/>
        </g>
      </g>
    </g>
  </g>
</svg>
