<svg xmlns="http://www.w3.org/2000/svg" xmlns:xlink="http://www.w3.org/1999/xlink" width="171.713" height="173.847" viewBox="0 0 171.713 173.847">
  <defs>
    <filter id="Combined_Shape" x="0" y="0" width="171.713" height="173.847" filterUnits="userSpaceOnUse">
      <feOffset input="SourceAlpha"/>
      <feGaussianBlur stdDeviation="24.5" result="blur"/>
      <feFlood flood-color="#101d71" flood-opacity="0.078"/>
      <feComposite operator="in" in2="blur"/>
      <feComposite in="SourceGraphic"/>
    </filter>
  </defs>
  <g id="man-wight" transform="translate(73.5 73.5)">
    <g id="scientist" transform="translate(0)">
      <g transform="matrix(1, 0, 0, 1, -73.5, -73.5)" filter="url(#Combined_Shape)">
        <path id="Combined_Shape-2" data-name="Combined Shape" d="M8.8,26.847l-2.55-2.17a.753.753,0,0,1-.186-.91L6.9,22.1H5.364a.752.752,0,0,1-.673-1.089l.578-1.158-.525.21A7.153,7.153,0,0,0,.472,24.957L0,26.847Zm2.8-2.131L8.521,18.553l-1.148.459-.79,1.582H8.12a.753.753,0,0,1,.673,1.09L7.68,23.912,11.6,26.847Zm5.43-.8-1.115-2.228a.754.754,0,0,1,.674-1.09H18.13l-.791-1.582-1.148-.459L13.11,24.715v2.131Zm7.68,2.935-.473-1.89a7.151,7.151,0,0,0-4.27-4.893l-.526-.21.579,1.158a.752.752,0,0,1-.674,1.089H17.811l.833,1.667a.75.75,0,0,1-.186.91l-2.55,2.17ZM14.782,18a5.862,5.862,0,0,1-4.851,0l2.426,4.851Zm5-9.733a6.79,6.79,0,0,1-2.853-2.893A29.364,29.364,0,0,1,4.964,8.44c.916,4.262,4,8.582,7.393,8.582C15.8,17.022,18.916,12.584,19.784,8.269ZM4.964,8.44h0ZM16.928,3.681a.752.752,0,0,1,1.087.43A5.366,5.366,0,0,0,20,6.651c.014-.224.022-.447.022-.667a5.211,5.211,0,0,0-2.14-4.666A9.789,9.789,0,0,0,12.357,0a9.794,9.794,0,0,0-5.53,1.318A5.213,5.213,0,0,0,4.688,5.984c0,.31.014.626.043.946q.188,0,.376,0C11.046,6.935,16.866,3.715,16.928,3.681Z" transform="translate(73.5 73.5)" fill="#fff"/>
      </g>
    </g>
  </g>
</svg>
