<svg xmlns="http://www.w3.org/2000/svg" xmlns:xlink="http://www.w3.org/1999/xlink" width="146.795" height="137.846" viewBox="0 0 146.795 137.846">
  <defs>
    <filter id="male-and-female" x="0" y="0" width="146.795" height="137.846" filterUnits="userSpaceOnUse">
      <feOffset input="SourceAlpha"/>
      <feGaussianBlur stdDeviation="18.5" result="blur"/>
      <feFlood flood-color="#101d71" flood-opacity="0.078"/>
      <feComposite operator="in" in2="blur"/>
      <feComposite in="SourceGraphic"/>
    </filter>
  </defs>
  <g id="member-wight-full" transform="translate(55.5 55.5)">
    <g transform="matrix(1, 0, 0, 1, -55.5, -55.5)" filter="url(#male-and-female)">
      <path id="male-and-female-2" data-name="male-and-female" d="M6.711,0a.746.746,0,0,1,.746.746,7.872,7.872,0,0,0,5.971,7.648l1.878.468a.749.749,0,0,1,.5.434.741.741,0,0,1-.04.663,9.452,9.452,0,0,0-.914,2.164.744.744,0,0,1-.244.373,3.33,3.33,0,0,0-1.195,2.164l-.277,2.207a3.338,3.338,0,0,0,.769,2.572.75.75,0,0,1,.007.958,4.236,4.236,0,0,0-.031,5.273.763.763,0,0,1,.034.776.787.787,0,0,1-.658.4,3.658,3.658,0,0,1-2.9-1.1h-.248c-2.324,0-3.5-2.478-3.5-7.36,0-5.513-1.9-7.113-1.917-7.128a.762.762,0,0,1-.281-.639.748.748,0,0,1,.36-.591A13.916,13.916,0,0,1,9.114,8.635l-.165-.66L4.842,6.948A6.38,6.38,0,0,1,0,.749.749.749,0,0,1,.746,0ZM35.049,0a.746.746,0,0,1,.746.746,6.379,6.379,0,0,1-4.842,6.2L26.845,7.973l-.329,1.318a7.852,7.852,0,0,1,1.983,4,1.855,1.855,0,0,1,1.348,1.554l.275,2.2A1.849,1.849,0,0,1,29,18.988c.078.685.183,1.679.183,2.152,0,2.083-.628,4.479-5.468,4.6a7.469,7.469,0,0,1-4.239,1.106,4.811,4.811,0,0,1-4.338-1.991c-1.146-1.749-.589-2.964.081-3.675l.362-.364.093-1.864a1.892,1.892,0,0,1-.608-.458,1.855,1.855,0,0,1-.439-1.443l.275-2.2a1.851,1.851,0,0,1,1.215-1.513A7.8,7.8,0,0,1,18.2,9.192l-.3-1.219L13.791,6.948A6.378,6.378,0,0,1,8.949.749.749.749,0,0,1,9.7,0Z" transform="translate(91.29 82.35) rotate(180)" fill="#fff"/>
    </g>
  </g>
</svg>
