<svg xmlns="http://www.w3.org/2000/svg" xmlns:xlink="http://www.w3.org/1999/xlink" width="92.287" height="40.807" viewBox="0 0 92.287 40.807">
  <defs>
    <linearGradient id="linear-gradient" x1="1" y1="1" x2="0" gradientUnits="objectBoundingBox">
      <stop offset="0" stop-color="#0c9ee2"/>
      <stop offset="1" stop-color="#00d0d3"/>
    </linearGradient>
  </defs>
  <path id="message-big" d="M21.056,40.807a4.9,4.9,0,0,1-2.516-.667A5.126,5.126,0,0,1,16.721,38.3a7.707,7.707,0,0,1-1.006-2.511,3.564,3.564,0,0,1,.387-2.512L27.249,5.964a10.44,10.44,0,0,1,3.522-4.277A8.959,8.959,0,0,1,35.919,0H87.011a4.895,4.895,0,0,1,2.516.667,5.12,5.12,0,0,1,1.819,1.844,5.833,5.833,0,0,1,.619,5.023L81.747,34.844a9.567,9.567,0,0,1-3.561,4.394,9.8,9.8,0,0,1-5.419,1.57ZM32.087,4.238A6.182,6.182,0,0,0,29.726,7.22L18.579,34.529a1.949,1.949,0,0,0,.31,2.2,2.208,2.208,0,0,0,1.858.942H72.458a6.365,6.365,0,0,0,3.522-1.1,6.177,6.177,0,0,0,2.361-2.982L88.56,6.278a1.949,1.949,0,0,0-.31-2.2,2.676,2.676,0,0,0-1.858-.941H35.61A6.365,6.365,0,0,0,32.087,4.238ZM1.548,37.669a1.57,1.57,0,0,1,0-3.139H5.573a1.57,1.57,0,0,1,0,3.139ZM70.29,34.216,59.453,24.8a1.954,1.954,0,0,1-.31-2.2,1.888,1.888,0,0,1,2.167-.314L72.148,31.7a1.954,1.954,0,0,1,.31,2.2,1.6,1.6,0,0,1-1.239.628A1.129,1.129,0,0,1,70.29,34.216Zm-47.066-.628a1.957,1.957,0,0,1,.619-2.2L43.97,21.973a1.9,1.9,0,0,1,2.168.628,1.957,1.957,0,0,1-.619,2.2L25.391,34.216c0,.314-.31.314-.619.314A1.7,1.7,0,0,1,23.224,33.588Zm22.6-14.439L34.681,9.1a1.532,1.532,0,0,1,0-2.2,1.483,1.483,0,0,1,2.167,0L48,16.951a9.976,9.976,0,0,0,10.218,1.255l20.127-11.3a2.035,2.035,0,0,1,2.167.628,2.1,2.1,0,0,1-.619,2.2L59.762,21.346a41.817,41.817,0,0,1-5.884.628A13.252,13.252,0,0,1,45.828,19.148ZM1.548,21.973a1.57,1.57,0,0,1,0-3.139H9.29a1.57,1.57,0,0,1,0,3.139Zm0-15.7A1.473,1.473,0,0,1,0,4.708,1.473,1.473,0,0,1,1.548,3.139H17.03a1.473,1.473,0,0,1,1.548,1.569,1.473,1.473,0,0,1-1.548,1.57Z" fill="url(#linear-gradient)"/>
</svg>
