<svg xmlns="http://www.w3.org/2000/svg" width="35.84" height="35.84" viewBox="0 0 35.84 35.84">
  <path id="money-windows" d="M33.45,35.43,28.83,30.81a1.4,1.4,0,0,1,1.98-1.98L35.43,33.45a1.4,1.4,0,0,1-1.98,1.98ZM8.4,35.84A8.409,8.409,0,0,1,0,27.44V8.4A8.409,8.409,0,0,1,8.4,0H27.44a8.409,8.409,0,0,1,8.4,8.4V19.88a1.4,1.4,0,0,1-2.8,0V8.4a5.606,5.606,0,0,0-5.6-5.6H8.4A5.606,5.606,0,0,0,2.8,8.4V27.44a5.606,5.606,0,0,0,5.6,5.6H20.02a1.4,1.4,0,1,1,0,2.8Zm15.19-4.2V27.72a4.206,4.206,0,0,1,4.2-4.2h3.99a1.4,1.4,0,1,1,0,2.8H27.79a1.4,1.4,0,0,0-1.4,1.4v3.92a1.4,1.4,0,0,1-2.8,0Zm-6.86-4.13v-.183a10.92,10.92,0,0,1-1.847-.546,1.4,1.4,0,1,1,1.034-2.6,7.426,7.426,0,0,0,2.388.531.8.8,0,0,0,.8-.7c0-.324-.458-.7-1.049-.7-2.275,0-3.991-1.5-3.991-3.5a3.506,3.506,0,0,1,2.66-3.4v-.1a1.4,1.4,0,0,1,2.8,0v.257a11.344,11.344,0,0,1,1.208.4,1.4,1.4,0,0,1-1.015,2.61,5.519,5.519,0,0,0-2.153-.465.7.7,0,0,0-.7.7c0,.4.512.7,1.191.7a3.691,3.691,0,0,1,3.849,3.5,3.562,3.562,0,0,1-2.38,3.283v.217a1.4,1.4,0,0,1-2.8,0ZM7,10.43a1.4,1.4,0,1,1,0-2.8H28.84a1.4,1.4,0,1,1,0,2.8Z" fill="#fff"/>
</svg>
