<svg xmlns="http://www.w3.org/2000/svg" xmlns:xlink="http://www.w3.org/1999/xlink" width="22" height="20" viewBox="0 0 22 20">
  <defs>
    <linearGradient id="linear-gradient" x1="1" y1="1" x2="0" gradientUnits="objectBoundingBox">
      <stop offset="0" stop-color="#05a4d1"/>
      <stop offset="1" stop-color="#00d0d3"/>
    </linearGradient>
  </defs>
  <path id="Money_" data-name="Money " d="M0,15a5.042,5.042,0,1,1,5.042,5A5.027,5.027,0,0,1,0,15Zm.917,0a4.125,4.125,0,1,0,4.125-4.091A4.112,4.112,0,0,0,.917,15Zm3.667,2.727v-.479c-1.007-.112-1.75-.593-1.83-1.224a.456.456,0,0,1,.4-.508.465.465,0,0,1,.513.394c.013.107.343.337.92.422V15.4c-.749-.115-1.833-.4-1.833-1.305,0-.683.761-1.219,1.833-1.339v-.48a.458.458,0,0,1,.916,0v.479c1.006.112,1.749.593,1.83,1.223a.455.455,0,0,1-.4.509.463.463,0,0,1-.513-.393c-.014-.107-.343-.336-.92-.421V14.6c.749.117,1.833.4,1.833,1.306,0,.683-.761,1.218-1.833,1.338v.48a.458.458,0,0,1-.916,0Zm.916-1.4c.62-.091.917-.349.917-.422,0,0-.013-.222-.917-.385Zm-1.833-2.24s.012.221.917.383v-.805C3.988,13.757,3.667,14,3.667,14.091Zm8.708-.454a.455.455,0,1,1,0-.91h8.708V.909H1.834V9.545a.459.459,0,0,1-.917,0V.455A.457.457,0,0,1,1.375,0H21.542A.457.457,0,0,1,22,.455V13.181a.458.458,0,0,1-.458.455ZM11,10.454V9.966A1.992,1.992,0,0,1,9.169,8.307a.449.449,0,0,1,.106-.331.456.456,0,0,1,.311-.159l.045,0a.467.467,0,0,1,.45.417c.03.358.4.682.919.807v.926a2.9,2.9,0,0,0,.917,0V9.037a1.99,1.99,0,0,1-.917,0V7.186c-1.234-.3-1.833-.867-1.833-1.732A1.987,1.987,0,0,1,11,3.673l0-.491a.459.459,0,0,1,.917,0v.49a3.008,3.008,0,0,0-.457-.035,2.908,2.908,0,0,0-.46.037V4.6c-.549.133-.916.476-.916.854s.291.622.916.8v.933c.1.027.224.052.366.078l.1.02c.167.031.319.066.45.1V9.037c.547-.133.916-.476.916-.855,0-.364-.3-.624-.916-.8V6.452c-.107-.026-.227-.052-.365-.078l-.1-.02c-.161-.029-.313-.063-.453-.1V4.6a1.909,1.909,0,0,1,.46-.055,1.943,1.943,0,0,1,.457.054V6.45c1.233.3,1.833.868,1.833,1.732a1.988,1.988,0,0,1-1.832,1.781h0v.491a.459.459,0,0,1-.917,0Zm1.835-5.049a1.08,1.08,0,0,0-.918-.806V3.671a2,2,0,0,1,1.832,1.657.456.456,0,0,1-.418.491l-.035,0A.466.466,0,0,1,12.836,5.405Zm5.04-2.678a.455.455,0,1,1,0-.909h1.833a.455.455,0,1,1,0,.909Z" fill="url(#linear-gradient)"/>
</svg>
