<svg xmlns="http://www.w3.org/2000/svg" width="26.999" height="26.999" viewBox="0 0 26.999 26.999">
  <path id="plus" d="M13.5,27A13.5,13.5,0,0,1,8.245,1.062a13.5,13.5,0,0,1,14.8,21.984A13.461,13.461,0,0,1,13.5,27ZM8.775,12.149a.677.677,0,0,0-.676.676v1.35a.676.676,0,0,0,.676.674H12.15v3.376a.676.676,0,0,0,.676.674h1.35a.675.675,0,0,0,.674-.674V14.849h3.376a.675.675,0,0,0,.674-.674v-1.35a.676.676,0,0,0-.674-.676H14.849V8.775a.675.675,0,0,0-.674-.674h-1.35a.676.676,0,0,0-.676.674v3.374Z" transform="translate(-0.001 -0.001)" fill="#fff"/>
</svg>
