<svg xmlns="http://www.w3.org/2000/svg" width="24" height="22.306" viewBox="0 0 24 22.306">
  <g id="printer" transform="translate(0 -18.065)">
    <g id="Group_34" data-name="Group 34" transform="translate(7.733 35.96)">
      <g id="Group_33" data-name="Group 33">
        <path id="Path_16" data-name="Path 16" d="M172.71,399.834h-6.933a.8.8,0,0,0,0,1.6h6.933a.8.8,0,0,0,0-1.6Z" transform="translate(-164.977 -399.834)" fill="#00d0d3"/>
      </g>
    </g>
    <g id="Group_36" data-name="Group 36" transform="translate(7.733 33.437)">
      <g id="Group_35" data-name="Group 35">
        <path id="Path_17" data-name="Path 17" d="M172.71,346.006h-6.933a.8.8,0,0,0,0,1.6h6.933a.8.8,0,0,0,0-1.6Z" transform="translate(-164.977 -346.006)" fill="#00d0d3"/>
      </g>
    </g>
    <g id="Group_38" data-name="Group 38" transform="translate(0 18.065)">
      <g id="Group_37" data-name="Group 37">
        <path id="Path_18" data-name="Path 18" d="M22.133,23.5H19.588v-4.63a.8.8,0,0,0-.8-.8H5.212a.8.8,0,0,0-.8.8V23.5H1.867A1.869,1.869,0,0,0,0,25.362V33.41a1.869,1.869,0,0,0,1.867,1.867H4.412v4.294a.8.8,0,0,0,.8.8H18.788a.8.8,0,0,0,.8-.8V35.277h2.546A1.869,1.869,0,0,0,24,33.41V25.362A1.869,1.869,0,0,0,22.133,23.5ZM6.012,19.665H17.988V23.5H6.012ZM17.988,38.771H6.012V32.226H17.988C17.988,32.425,17.988,38.621,17.988,38.771Zm.8-10.579H16.751a.8.8,0,0,1,0-1.6h2.036a.8.8,0,1,1,0,1.6Z" transform="translate(0 -18.065)" fill="#00d0d3"/>
      </g>
    </g>
  </g>
</svg>
