<svg xmlns="http://www.w3.org/2000/svg" width="14.256" height="15.147" viewBox="0 0 14.256 15.147">
  <path id="settings-line" d="M7.423,15.147H6.779A1.931,1.931,0,0,1,4.92,13.765a.631.631,0,0,1,.448-.779.65.65,0,0,1,.8.439.642.642,0,0,0,.644.46h.645a.643.643,0,0,0,.645-.46l.3-1.055a1.264,1.264,0,0,1,.632-.814,3.458,3.458,0,0,0,.31-.158c.1-.058.2-.121.3-.184a1.314,1.314,0,0,1,1.071-.2l1.091.271a.65.65,0,0,0,.715-.3l.31-.524a.62.62,0,0,0-.1-.758l-.787-.776a1.246,1.246,0,0,1-.329-1,4.5,4.5,0,0,0,0-.714,1.246,1.246,0,0,1,.361-.991l.788-.782a.623.623,0,0,0,.1-.758l-.31-.524a.651.651,0,0,0-.723-.3l-1.09.271a1.315,1.315,0,0,1-1.058-.2,4.527,4.527,0,0,0-.645-.354,1.267,1.267,0,0,1-.644-.8l-.3-1.067a.646.646,0,0,0-.645-.461H6.791a.645.645,0,0,0-.645.461L5.888,2.776a1.267,1.267,0,0,1-.729.815c-.1.05-.212.1-.31.158s-.2.121-.3.184a1.314,1.314,0,0,1-1.071.2L2.4,3.863a.65.65,0,0,0-.716.3l-.31.524a.62.62,0,0,0,.1.758l.787.776a1.245,1.245,0,0,1,.361,1,4.3,4.3,0,0,0,0,.714,1.246,1.246,0,0,1-.361.991l-.794.788a.62.62,0,0,0-.1.758l.31.524a.65.65,0,0,0,.722.3.648.648,0,0,1,.787.454.631.631,0,0,1-.464.77,1.955,1.955,0,0,1-2.162-.89l-.31-.53a1.865,1.865,0,0,1,.3-2.254l.788-.782a4.926,4.926,0,0,1,0-.922L.553,6.311a1.862,1.862,0,0,1-.3-2.265l.31-.524a1.954,1.954,0,0,1,2.155-.884l1.09.272a4.571,4.571,0,0,1,.407-.259q.2-.113.413-.208l.316-1.054A1.929,1.929,0,0,1,6.81,0h.645A1.931,1.931,0,0,1,9.314,1.382l.3,1.066a5.333,5.333,0,0,1,.825.455l1.091-.266a1.953,1.953,0,0,1,2.155.89l.31.524a1.863,1.863,0,0,1-.3,2.273l-.8.788a5.084,5.084,0,0,1,0,.922l.781.8a1.863,1.863,0,0,1,.3,2.279l-.31.524a1.953,1.953,0,0,1-2.155.884l-1.09-.272a4.571,4.571,0,0,1-.407.259c-.135.076-.271.145-.413.208l-.31,1.054a1.931,1.931,0,0,1-1.863,1.376Zm-.329-4.418h0a3.261,3.261,0,0,1-1.684-.465A3.141,3.141,0,0,1,3.867,7.574a3.227,3.227,0,0,1,6.452,0,3.193,3.193,0,0,1-3.225,3.155ZM5.161,7.574a1.935,1.935,0,0,0,3.869,0A1.868,1.868,0,0,0,8.5,6.268a1.964,1.964,0,0,0-2.744-.056A1.872,1.872,0,0,0,5.161,7.574Z" transform="translate(0)" fill="#fff"/>
</svg>
