<svg xmlns="http://www.w3.org/2000/svg" width="24.373" height="36.474" viewBox="0 0 24.373 36.474">
  <path id="trand" d="M12.186,36.474A12.367,12.367,0,0,1,0,23.96a24.434,24.434,0,0,1,1.815-8.8A41.777,41.777,0,0,1,5.749,7.63a52.56,52.56,0,0,1,5.7-7.312L11.45.312A1.025,1.025,0,0,1,12.187,0a1.009,1.009,0,0,1,.4.081,1.064,1.064,0,0,1,.643.986v8.957a2.3,2.3,0,1,0,4.606,0,1.067,1.067,0,0,1,.762-1.03,1.006,1.006,0,0,1,.279-.039,1.043,1.043,0,0,1,.891.515c3.058,5.2,4.608,10.072,4.608,14.489A12.368,12.368,0,0,1,12.186,36.474ZM7.98,24.524h0L10.4,27.006a1.04,1.04,0,0,0,.737.311,1.028,1.028,0,0,0,.735-.311l5.182-5.321v2a1.041,1.041,0,1,0,2.081,0V19.1a1.056,1.056,0,0,0-1.04-1.069h-4.46a1.07,1.07,0,0,0,0,2.139h1.947l-4.445,4.565L8.715,22.257a1.023,1.023,0,0,0-1.471,0L4.879,24.684a1.089,1.089,0,0,0,0,1.511,1.02,1.02,0,0,0,1.472,0L7.98,24.525Z" fill="#fff"/>
</svg>
