<svg xmlns="http://www.w3.org/2000/svg" xmlns:xlink="http://www.w3.org/1999/xlink" width="403.818" height="315.971" viewBox="0 0 403.818 315.971">
  <defs>
    <linearGradient id="linear-gradient" y1="0.5" x2="1" y2="0.5" gradientUnits="objectBoundingBox">
      <stop offset="0" stop-color="gray" stop-opacity="0.251"/>
      <stop offset="0.54" stop-color="gray" stop-opacity="0.122"/>
      <stop offset="1" stop-color="gray" stop-opacity="0.102"/>
    </linearGradient>
  </defs>
  <g id="undraw_empty_xct9" transform="translate(0.002 -0.001)">
    <ellipse id="Oval" cx="70.44" cy="13.344" rx="70.44" ry="13.344" transform="translate(71.212 283.164)" fill="#00d0d3" opacity="0.1"/>
    <path id="Path" d="M234.622,44.559c-25.888-.9-50.544-9.256-74.088-18.4S113.67,6.887,88.4,2.043C72.15-1.073,53.562-1.517,40.47,7.187c-12.6,8.4-16.676,22.86-18.864,36.288-1.648,10.1-2.616,20.74,1.9,30.2,3.136,6.568,8.7,12.088,12.544,18.38,13.388,21.888,3.924,48.88-10.58,70.252-6.8,10.024-14.7,19.6-19.952,30.26s-7.68,22.916-3.084,33.82c4.552,10.8,15.4,18.9,27.16,24.6,23.876,11.58,52,14.892,79.444,16.772,60.732,4.152,121.784,2.356,182.676.552,22.536-.664,45.168-1.34,67.336-4.824,12.312-1.936,25.02-5.008,33.96-12.424,11.344-9.412,14.156-25.348,6.552-37.148-12.752-19.8-48-24.716-56.924-45.96-4.9-11.7.132-24.72,7.264-35.564,15.3-23.268,40.932-43.68,42.28-70.272.928-18.264-11.4-36.556-30.452-45.2-19.972-9.06-47.672-7.92-62.4,7.076C284.146,39.415,257.482,45.355,234.622,44.559Z" transform="translate(-0.002 0.001)" fill="#00d0d3" opacity="0.1"/>
    <path id="Shape" d="M33.408,269l-3.716-.231c-4.8-.3-12.88-.816-15.732-1.044-4.163-.34-3.14-2.02-3.14-2.02v-8a1.477,1.477,0,0,1-.252-.148c-1.476-1.212,0-25.025,0-25.025S14.233,196.2,17.1,194.59s.136-3.628,1.092-6.052-.952-9.016-.952-9.016-.823-7.808-2.867-11.572-1.777-14.124-1.777-14.124-5.719-7.552-7.436-10.5-2.8-10.612-2.4-16.4c.276-3.912,2.361-9.608,3.685-12.884-1.572.284-4.372.512-5.972-.872-2.08-1.756,3.364-8.208,4.72-9.756a34.313,34.313,0,0,1-.216-5L3.644,86.334A72.9,72.9,0,0,0,1.6,75.638a19.47,19.47,0,0,1-.708-3.252,25.68,25.68,0,0,1,.688-10.2,21.739,21.739,0,0,0,.736-4.312c.2-3.736,11.772-18.164,14.636-19.476A5.966,5.966,0,0,0,19.62,36a5.327,5.327,0,0,0,.3-.928,7.446,7.446,0,0,1,.869-2.255c1.4-3.369,3.875-1.716,3.875-1.716.049-.1.1-.192.14-.288.292-.6.58-1.24.86-1.884a2.7,2.7,0,0,1-.76.26,3.527,3.527,0,0,1-2.032-.448,1.619,1.619,0,0,1-.9-.8.848.848,0,0,1-.044-.3c-.049-.764.923-1.432,1.1-2.232a1.942,1.942,0,0,0-.067-.944.055.055,0,0,1,0,.024,4.83,4.83,0,0,1-.272-1.284,1.233,1.233,0,0,1,.059-.432c.165-.5.64-.832.936-1.272a3.37,3.37,0,0,0,.36-2.2v.024c-.023-.3-.059-.6-.059-.9a3.763,3.763,0,0,1,.184-1.512c.38-1.008,1.412-1.636,1.98-2.556a4.719,4.719,0,0,0,.352-.728h-.072l.164-3.468a.967.967,0,0,0-.828.276,1.224,1.224,0,0,0-.2.4c-.088.256-.16.52-.24.78l.044-.049a3.4,3.4,0,0,1-.248.581l-.051.072v.031a1.328,1.328,0,0,1-1.232.736,6.758,6.758,0,0,0,.4-1.6,2.921,2.921,0,0,1-1.36.22l.068-.108a3.182,3.182,0,0,0,.239-.368,4.524,4.524,0,0,0,.524-1.452,3.21,3.21,0,0,1,.332-1.2,1.044,1.044,0,0,1,.244-.316v.076a4.064,4.064,0,0,1,1.085-.4c.876-.328,1.612-1.444,2.5-2l.064-.672C30.952-.586,41.7.018,41.7.018,58.212,2.543,59.812,13.582,59.812,15.71s6.4,4.8,6.4,4.8,2.024.524,2.336,1.268a1.887,1.887,0,0,1,.08,2.2,2.238,2.238,0,0,1-.512.476,6.307,6.307,0,0,1-2.52.9,4.707,4.707,0,0,1-.572.068h-.1a4.355,4.355,0,0,1-.46,0h-.116a4.237,4.237,0,0,1-.512-.052h-.02c-.18-.028-.356-.064-.532-.108l-.088-.024c-.144-.04-.28-.084-.42-.131l-.123-.044c-.131-.053-.265-.11-.4-.168l-.08-.031c-.16-.076-.319-.157-.476-.24l-.048-.028c-.132-.076-.268-.16-.4-.24l-.112-.072-.344-.236-.088-.064c-.272-.208-.544-.428-.8-.656l-.084-.076-.3-.281a.9.9,0,0,0-.08-.076c-.24-.236-.464-.476-.676-.712l-.057-.064c-.084-.1-.167-.188-.248-.284l-.072-.084-.224-.276-.036-.044c-.176-.236-.336-.436-.476-.635-.748-.4-1.5-.8-2.236-1.2a4,4,0,0,1,.043.424A9.107,9.107,0,0,1,55.5,21.07a14.524,14.524,0,0,1-13.56,14.4c-.216.273-.416.553-.616.841a44.133,44.133,0,0,0-3.2,5.384l5.84,6.9-.72,6.472c3.128,4.648,3.84,11.62,3.84,16.879,0,1.248-.032,2.4-.085,3.4A90.134,90.134,0,0,1,48,85.3l.144,3.2,12.14-1.46L74.844,95.2,86.472,86.21l32.36,2.58-6.18,9.2,12.252,8.26-12.252,2.024v28.959l-11.836,2.24-5.756,1.088-13.3,2.52L66.992,141.59l-6.424-.648-1.956-.2-6.424-.66-7.08-.716v35.5s.888,9.283,0,11.2a20.163,20.163,0,0,1-3.852,4.376,27.772,27.772,0,0,0,.3,3.932c.956,4.3-3.276,8.344-3.276,8.344a4.185,4.185,0,0,0-1.12.32l-.936,21.492s-1.641,5.18-.752,6.66c.756,1.268,1.956,2.532,1.956,3.42,1.716.62,6.488,2.44,8,4.064,1.1,1.191,1.922,1.063,3.151.935a9.434,9.434,0,0,1,2.794.052c.159.028.319.064.491.1,2.988.677,4.612.944,5.568,3.384a11.171,11.171,0,0,1,.46,1.577c.872,3.931-4.968,3.892-8.288,5.384s-10.8,0-10.8,0l-3.155-.2-5.3-.336a2.928,2.928,0,0,0,1.484.724c-.049.148-.108.288-.157.432,1.957.689,7.7,2.86,9.5,4.8,1.3,1.4,2.263,1.255,3.711,1.1a11.1,11.1,0,0,1,3.286.061c.18.031.375.072.58.116,3.516.8,5.424,1.128,6.548,4a13.237,13.237,0,0,1,.544,1.852c1.024,4.628-5.868,4.588-9.756,6.34a12.946,12.946,0,0,1-5.018.779A45.379,45.379,0,0,1,33.408,269Z" transform="translate(89.144 38.446)" fill="url(#linear-gradient)"/>
    <path id="Path-2" data-name="Path" d="M31.024,14.492c-4,5.724-18.38,2.692-18.38,2.692L1.5,6.756,0,5.344,2.516,0s.8.22,2.172.612C11.892,2.7,34.4,9.68,31.024,14.492Z" transform="translate(154.308 149.008)" fill="#efb7b9"/>
    <path id="Path-3" data-name="Path" d="M4.68.612A23.465,23.465,0,0,1,1.5,6.756L0,5.344,2.516,0S3.324.22,4.68.612Z" transform="translate(154.308 149.008)" opacity="0.1"/>
    <path id="Path-4" data-name="Path" d="M9.786.168S-.486,4.724.018,15.912a184.456,184.456,0,0,0,2.352,21.5S.27,54.252,9.014,58.592,25.85,66.5,25.85,66.5s13.68,1.472,15.38,2.08,7.012-8.688,6.032-10.136-13.536-4.484-15.136-6.9-5.3-3.908-5.3-3.908-3.82-2.312-4.08-4.4.748-3.644,1-4.56.9-9.76.9-9.76S28.966-2.564,9.786.168Z" transform="translate(110.982 89.188)" fill="#dce6f2"/>
    <path id="Path-5" data-name="Path" d="M12.821,0S-1.271,2.36.093,7.292A29.876,29.876,0,0,1,12.821,0Z" transform="translate(114.727 126.144)" opacity="0.1"/>
    <path id="Path-6" data-name="Path" d="M6.429,0S-1.319,6.324.2,6.648,6.429,0,6.429,0Z" transform="translate(121.227 128.14)" opacity="0.1"/>
    <path id="Path-7" data-name="Path" d="M1.215,0S-.861,4.252.415,3.964,1.215,0,1.215,0Z" transform="translate(130.165 130.344)" opacity="0.1"/>
    <path id="Path-8" data-name="Path" d="M48.01,60.436l-.856-.244a2.446,2.446,0,0,0,.112-1.748c-.98-1.448-13.528-4.48-15.124-6.9s-5.3-3.908-5.3-3.908-3.82-2.312-4.08-4.4.748-3.644,1-4.56.9-9.764.9-9.764S28.97-2.564,9.79.168c0,0-10.272,4.56-9.772,15.748a183.94,183.94,0,0,0,2.356,21.5S.274,54.256,9.018,58.6,25.854,66.5,25.854,66.5s13.676,1.468,15.38,2.08c.644.232,1.808-.964,2.948-2.608l.648.6L55.974,77s14.38,3.036,18.38-2.688C77.734,69.5,55.23,62.524,48.01,60.436Z" transform="translate(111.498 89.636)" opacity="0.1"/>
    <path id="Path-9" data-name="Path" d="M2.408,2.3A3.4,3.4,0,0,0,1.3,2.729c-.4.332-.4.9-.5,1.4A4.592,4.592,0,0,1,0,6.037a2.876,2.876,0,0,0,1.332-.22,6.856,6.856,0,0,1-.4,1.6,1.3,1.3,0,0,0,1.2-.732,7.7,7.7,0,0,0,.5-1.4,1.156,1.156,0,0,1,.192-.4c.368-.436,1.052-.24,1.62-.184A2.66,2.66,0,0,0,6.876,3.529c.6-.916.64-3.26-.8-3.508C4.572-.227,3.636,1.845,2.408,2.3Z" transform="translate(112.448 45.063)" fill="#965d7b"/>
    <g id="Group" transform="translate(112.4 47.6)" opacity="0.1">
      <path id="Path-10" data-name="Path" d="M.632.6C.668.4.692.2.736,0h0a2.346,2.346,0,0,0-.5,1.4A4.4,4.4,0,0,1,0,2.24,4.584,4.584,0,0,0,.632.6Z" transform="translate(0.676 0.088)"/>
      <path id="Path-11" data-name="Path" d="M1.328,1.6a6.652,6.652,0,0,0,.4-1.6A2.864,2.864,0,0,1,.46.22a4.628,4.628,0,0,1-.46.8A2.848,2.848,0,0,0,1.328.8a6.652,6.652,0,0,1-.4,1.6,1.3,1.3,0,0,0,1.2-.732,2.984,2.984,0,0,0,.24-.572,1.2,1.2,0,0,1-1.04.5Z" transform="translate(0.108 2.388)"/>
      <path id="Path-12" data-name="Path" d="M1.912.98C1.344.924.656.728.288,1.164a1.236,1.236,0,0,0-.192.4c-.036.1-.068.212-.1.32.38-.3,1-.14,1.512-.088A2.672,2.672,0,0,0,3.944.628,2.216,2.216,0,0,0,4.212,0,2.664,2.664,0,0,1,1.912.98Z" transform="translate(3.036 0.288)"/>
    </g>
    <path id="Path-13" data-name="Path" d="M2.068,0l6.1,7.336-.8,7.4L0,3.2,2.068,0Z" transform="translate(124.828 80.4)" fill="#dce6f2"/>
    <path id="Path-14" data-name="Path" d="M8.164,7.336,7.416,14.3l-.048.44L.716,4.324,0,3.2l.208-.324L2.064,0l.412.5,5.688,6.84Z" transform="translate(124.828 80.4)" opacity="0.1"/>
    <path id="Path-15" data-name="Path" d="M25.268,10.78c-2.064.592-4.036,2.624-5.752,5.092a43.46,43.46,0,0,0-3.1,5.336c-.564,1.128-1.06,2.212-1.472,3.156l-.288.672c-.7,1.644-1.084,2.744-1.084,2.744S-2.232,15.9.268,15.1c.84-.268,1.944-2.068,3.036-4.336l.136-.288C4.132,9.02,4.812,7.4,5.416,5.868,6.652,2.728,7.568,0,7.568,0S31.568,8.98,25.268,10.78Z" transform="translate(110.892 59.688)" fill="#efb7b9"/>
    <path id="Path-16" data-name="Path" d="M0,0S3.648,6.6,8.548,5.7s2.884-3.544,2.884-3.544Z" transform="translate(145.612 59.02)" fill="#444053"/>
    <path id="Path-17" data-name="Path" d="M29.384,15.576c-3.232,1.476-10.54,0-10.54,0l-3.08-.192c-4-.256-10.7-.688-13.064-.88C-.756,14.22.092,12.8.092,12.8V4.248L16.86,0S23.488,2.268,25.3,4.248c1.724,1.888,2.732.436,5.808.98.152.028.312.06.48.1,2.92.668,4.5.932,5.44,3.352a11.24,11.24,0,0,1,.452,1.56C38.348,14.136,32.612,14.108,29.384,15.576Z" transform="translate(109.16 271.904)" fill="#a36468"/>
    <path id="Path-18" data-name="Path" d="M37.032,3.452a12.536,12.536,0,0,1-1.888.968c-2.2,1-4.292,2.228-6.516,3.176A15.24,15.24,0,0,1,21.6,9.04,10.48,10.48,0,0,0,17.848,9a8.664,8.664,0,0,0-2.084,1.156c-4-.256-10.7-.688-13.064-.88C-.756,8.992.092,7.576.092,7.576v-1c.124,0,.264-.036.424-.048a7.552,7.552,0,0,1,2.44.364c1.736.472,3.464.936,5.2,1.4a4.108,4.108,0,0,1,2-2.552A6.376,6.376,0,0,1,13.38,5c2.692.036,5.24,1.312,7.928,1.44a4.368,4.368,0,0,0,2.2-.368c.368-.184.692-.452,1.052-.656A7.68,7.68,0,0,1,26.368,4.8a39.9,39.9,0,0,0,5.18-1.672c.48-.188,1.04-.528.976-1.04-.084-.68-1.152-.76-1.432-1.384A.8.8,0,0,1,31.124,0c.152.028.312.06.48.1C34.512.768,36.1,1.032,37.032,3.452Z" transform="translate(109.16 277.132)" opacity="0.1"/>
    <path id="Path-19" data-name="Path" d="M34.569,18.332c-3.8,1.736-12.4,0-12.4,0l-3.62-.212c-4.688-.3-12.584-.8-15.372-1.036-4.068-.336-3.068-2-3.068-2V5L19.841,0s7.8,2.668,9.936,5c2.028,2.22,3.2.512,6.836,1.152.18.032.368.072.564.116,3.436.8,5.3,1.1,6.4,3.948a12.841,12.841,0,0,1,.532,1.836C45.1,16.636,38.369,16.6,34.569,18.332Z" transform="translate(100.559 287.868)" fill="#a36468"/>
    <path id="Path-20" data-name="Path" d="M43.569,4.044a14.892,14.892,0,0,1-2.22,1.14C38.761,6.364,36.3,7.8,33.681,8.92a17.976,17.976,0,0,1-8.272,1.7c-1.48-.108-3-.48-4.4-.048a10.2,10.2,0,0,0-2.46,1.376c-4.688-.3-12.584-.8-15.372-1.036-4.068-.336-3.068-2-3.068-2V7.736a5,5,0,0,1,.5-.056,8.776,8.776,0,0,1,2.872.428L9.6,9.756a4.84,4.84,0,0,1,2.372-3,7.464,7.464,0,0,1,3.8-.872c3.168.044,6.164,1.544,9.328,1.7a5.164,5.164,0,0,0,2.576-.428c.436-.22.8-.536,1.24-.772a8.7,8.7,0,0,1,2.132-.72A47.876,47.876,0,0,0,37.1,3.688c.564-.224,1.224-.624,1.148-1.224-.1-.8-1.356-.9-1.688-1.632A.964.964,0,0,1,36.6,0c.18.032.368.072.564.116C40.6.884,42.469,1.2,43.569,4.044Z" transform="translate(100.559 294.04)" opacity="0.1"/>
    <path id="Path-21" data-name="Path" d="M13.108,0,12.04,25.132s-1.6,5.132-.732,6.6,2.332,2.932,1.8,3.8-6.932,10.252-9,6.652S0,22.984,0,22.984L1.908,3.716Z" transform="translate(113.42 237.004)" fill="#444053"/>
    <path id="Path-22" data-name="Path" d="M6,0,8.968,3.968V38.48s.868,9.2,0,11.1S3.7,55.28,3.7,55.28L0,36.28l.8-20.1Z" transform="translate(125.16 174.388)" fill="#444053"/>
    <path id="Path-23" data-name="Path" d="M13.108,0,12.04,25.132s-1.6,5.132-.732,6.6,2.332,2.932,1.8,3.8-6.932,10.252-9,6.652S0,22.984,0,22.984L1.908,3.716Z" transform="translate(113.42 237.004)" opacity="0.1"/>
    <path id="Path-24" data-name="Path" d="M6,0,8.968,3.968V38.48s.868,9.2,0,11.1S3.7,55.28,3.7,55.28L0,36.28l.8-20.1Z" transform="translate(125.16 174.388)" opacity="0.1"/>
    <path id="Path-25" data-name="Path" d="M41.42,9.6V28.268L38.088,42.8s-1.068,35.068-.136,39.332-3.2,8.268-3.2,8.268-2.4.268-2.4,2.132-4,7.2-4,7.2l.132,10.4s1.736,19.468-.932,23.2.932,4.268.932,4.268c-3.332,10.932-19.332,8.4-20.776,7.2s0-24.8,0-24.8,3.576-36,6.376-37.6.136-3.6,1.068-6-.932-8.932-.932-8.932-.8-7.736-2.8-11.468S9.684,42,9.684,42s-5.6-7.468-7.264-10.4S-.316,21.068.084,15.332c.272-3.876,2.308-9.52,3.6-12.768C4.3,1.008,4.752,0,4.752,0l.38.1L26.98,5.82Z" transform="translate(92.708 150.068)" fill="#444053"/>
    <path id="Path-26" data-name="Path" d="M19.856,10.808C17.792,11.4,15.82,13.432,14.1,15.9h-.448a14.288,14.288,0,0,1-12.4-7.172A14.072,14.072,0,0,1,0,5.868C1.236,2.728,2.152,0,2.152,0S26.156,9.008,19.856,10.808Z" transform="translate(116.304 59.66)" opacity="0.1"/>
    <path id="Path-27" data-name="Path" d="M28.6,14.311A14.3,14.3,0,1,1,1.848,7.3,13.972,13.972,0,0,1,3.36,5.119,14.472,14.472,0,0,1,6.648,2.231,14.3,14.3,0,0,1,28.58,13.263C28.588,13.615,28.6,13.963,28.6,14.311Z" transform="translate(115.66 46.157)" fill="#efb7b9"/>
    <path id="Path-28" data-name="Path" d="M21.352,24.536l-.048.44-6.652-10.4c-.7,1.644-1.084,2.744-1.084,2.744s-15.8-11.9-13.3-12.7C1.108,4.356,2.212,2.556,3.3.288L3.44,0c1.16,3.456,7.9,10.364,10.7,13.132.324.32.592.584.8.776l.428.4.224.224C16.616,15.584,20.92,20.224,21.352,24.536Z" transform="translate(110.892 70.164)" opacity="0.1"/>
    <path id="Path-29" data-name="Path" d="M47.113,59.94l-.728,23.428-.128,4.172s-8.624-.8-16.672-1.68c-6.48-.708-12.588-1.472-13.528-1.92a25.462,25.462,0,0,0-5.8-1.276c-1.568-.212-2.8-.324-2.8-.324s-.46.136-1.168.264c-1.544.28-4.256.508-5.836-.864-2.02-1.756,3.288-8.136,4.612-9.668l.292-.332-.5-4.62-1.3-11.98a73.092,73.092,0,0,0-2-10.6,19.552,19.552,0,0,1-.692-3.22,25.792,25.792,0,0,1,.672-10.1,22.032,22.032,0,0,0,.72-4.276c.2-3.7,11.5-18,14.3-19.3a5.936,5.936,0,0,0,2.864-2.856,5.456,5.456,0,0,0,.436-1.244C21.057-1.66,24.093.4,24.093.4,24.825,4.472,36.157,15.24,36.157,15.24l.224.224c1.124,1.152,6.132,6.56,5.776,11.176a13.548,13.548,0,0,0,.756,5.056,85.5,85.5,0,0,1,3.94,22.4Z" transform="translate(90.103 70.048)" fill="#dce6f2"/>
    <path id="Path-30" data-name="Path" d="M5.253,0s-2.8,6.8-4.9,7.9S6.253,10.22,5.253,0Z" transform="translate(115.907 102.168)" opacity="0.1"/>
    <path id="Path-31" data-name="Path" d="M6.4,0S0,.8,0,2,6.4,0,6.4,0Z" transform="translate(116.86 114.868)" opacity="0.1"/>
    <path id="Path-32" data-name="Path" d="M12.212,0S2.912,19.8.312,20.4,12.212,0,12.212,0Z" transform="translate(117.748 122.668)" opacity="0.1"/>
    <path id="Path-33" data-name="Path" d="M16.976,15.464,9.284,18.808,0,4.784A5.456,5.456,0,0,0,.436,3.54C1.636-1.66,4.672.4,4.672.4,5.4,4.472,16.736,15.24,16.736,15.24Z" transform="translate(109.108 70.828)" opacity="0.1"/>
    <path id="Path-34" data-name="Path" d="M16.976,15.464,9.284,18.808,0,4.784A5.456,5.456,0,0,0,.436,3.54C1.636-1.66,4.672.4,4.672.4,5.4,4.472,16.736,15.24,16.736,15.24Z" transform="translate(109.508 70.028)" fill="#dce6f2"/>
    <path id="Path-35" data-name="Path" d="M42.1,62.867s-8.624-.8-16.672-1.68l14.44,3.78v4.4c-.632.572-1.18.868-1.536.716-1.664-.7-15.244-2.9-15.244-2.9s-7.888-4-16.4-8.8a6.572,6.572,0,0,1-.6-.376,9.456,9.456,0,0,1-2.52-2.524A17.914,17.914,0,0,1,.9,47.415a34.888,34.888,0,0,1-.208-4.952,40.6,40.6,0,0,1,.512-5.6A184.032,184.032,0,0,1,0,15.267C.1,4.067,10.6.067,10.6.067c19.3-1.7,13.316,29.5,13.316,29.5s-1.116,8.8-1.42,9.7-1.4,2.4-1.248,4.5,3.836,4.612,3.836,4.612,3.6,1.688,5.084,4.188c1.08,1.844,8.1,4.344,12.06,6.128Z" transform="translate(94.259 94.721)" opacity="0.1"/>
    <path id="Path-36" data-name="Path" d="M27.192,7.292a4.528,4.528,0,0,1-.4,1.912,11.82,11.82,0,0,1-.712,1.424A6.56,6.56,0,0,1,24.328,12.8a8.962,8.962,0,0,1-3.2,1.112,4.631,4.631,0,0,0-2.892,1.64,5.736,5.736,0,0,0-.676,1.96,4.216,4.216,0,0,1-.8,1.9,1.572,1.572,0,0,1-1.872.448,1.892,1.892,0,0,1-.724-.932,13.366,13.366,0,0,1-.756-3.276,6.97,6.97,0,0,0-1.124-3.14A2.812,2.812,0,0,0,9.332,11.38a2.844,2.844,0,0,0-1.6,1.552,8.9,8.9,0,0,0-.6,2.208q-.744,4.072-1.756,8.1a.744.744,0,0,1-.132.3.576.576,0,0,1-.4.168c-.9.12-1.756-.508-2.66-.44a1.528,1.528,0,0,0-.276.044A14.292,14.292,0,0,1,3.348,6.992l.072-.02a4.312,4.312,0,0,0,1.6-1.008,16.888,16.888,0,0,0,1.6-1.852l.32-.4A18.244,18.244,0,0,1,10.06.748,3.2,3.2,0,0,1,11.124.172,3.152,3.152,0,0,1,12.132.14,25.428,25.428,0,0,0,16.3.3,26.716,26.716,0,0,1,19.22,0c2.532.072,4.692,1.86,6.292,3.82A5.917,5.917,0,0,1,27.192,7.292Z" transform="translate(115.632 44.296)" opacity="0.1"/>
    <path id="Path-37" data-name="Path" d="M4.127,9.932c-.556.912-1.56,1.532-1.936,2.532-.552,1.452.38,3.26-.476,4.556-.284.436-.752.76-.912,1.26-.272.844.472,1.744.28,2.612S-.253,22.492.051,23.34a1.6,1.6,0,0,0,.88.8,3.44,3.44,0,0,0,2,.444c1.092-.18,1.9-1.252,3.012-1.332.9-.064,1.76.56,2.656.444a.6.6,0,0,0,.4-.172.692.692,0,0,0,.132-.3q1.008-4.02,1.76-8.1a8.72,8.72,0,0,1,.6-2.208,2.868,2.868,0,0,1,1.6-1.552A2.821,2.821,0,0,1,16.043,12.5a6.928,6.928,0,0,1,1.128,3.14,13.545,13.545,0,0,0,.752,3.276,1.912,1.912,0,0,0,.728.936,1.567,1.567,0,0,0,1.868-.448,4.172,4.172,0,0,0,.8-1.9A5.712,5.712,0,0,1,22,15.544a4.641,4.641,0,0,1,2.892-1.64,9.05,9.05,0,0,0,3.2-1.116,6.584,6.584,0,0,0,1.752-2.172,6.394,6.394,0,0,0,1.1-3.34,6.131,6.131,0,0,0-1.64-3.46C27.7,1.856,25.531.068,23,0a24.88,24.88,0,0,0-2.924.3,25.028,25.028,0,0,1-4.164-.16A3.272,3.272,0,0,0,14.9.172a3.016,3.016,0,0,0-1.06.576,18.252,18.252,0,0,0-3.124,2.96,22.924,22.924,0,0,1-1.928,2.24,4.34,4.34,0,0,1-1.6,1.012c-.4.112-.8.032-1.18.156C4.831,7.488,4.675,9.028,4.127,9.932Z" transform="translate(111.513 43.908)" fill="#965d7b"/>
    <path id="Path-38" data-name="Path" d="M8.548,5.7c-3.2.588-5.852-2-7.32-3.888A15.688,15.688,0,0,1,0,0L10.984,2.072l.444.084S13.448,4.8,8.548,5.7Z" transform="translate(145.612 59.02)" opacity="0.1"/>
    <g id="Group-2" data-name="Group" transform="translate(111.2 50.4)" opacity="0.1">
      <path id="Path-39" data-name="Path" d="M.364,1.536A3.332,3.332,0,0,0,.132,0C.132.04.1.08.084.12A2.977,2.977,0,0,0,.292,1.768a1.2,1.2,0,0,0,.072-.232Z" transform="translate(1.032 11.72)"/>
      <path id="Path-40" data-name="Path" d="M.184,0A8.888,8.888,0,0,0,.216,1.66,8.912,8.912,0,0,0,.184,0Z" transform="translate(2.164 6.708)"/>
      <path id="Path-41" data-name="Path" d="M29.835,2.58a6.56,6.56,0,0,1-1.752,2.176,8.936,8.936,0,0,1-3.2,1.112,4.62,4.62,0,0,0-2.892,1.64,5.764,5.764,0,0,0-.676,1.96,4.188,4.188,0,0,1-.8,1.9,1.561,1.561,0,0,1-1.868.448,1.912,1.912,0,0,1-.728-.936A13.318,13.318,0,0,1,17.167,7.6a6.911,6.911,0,0,0-1.128-3.14,2.812,2.812,0,0,0-2.952-1.132,2.856,2.856,0,0,0-1.6,1.552,8.72,8.72,0,0,0-.6,2.208q-.748,4.076-1.76,8.1a.692.692,0,0,1-.132.3.6.6,0,0,1-.4.172c-.9.116-1.756-.508-2.656-.444-1.108.08-1.92,1.152-3.012,1.328a3.38,3.38,0,0,1-2-.444,2.14,2.14,0,0,1-.732-.52,1.08,1.08,0,0,0-.148.932,1.56,1.56,0,0,0,.88.8,3.38,3.38,0,0,0,2,.444c1.092-.176,1.9-1.248,3.012-1.328.9-.064,1.76.56,2.656.444a.6.6,0,0,0,.4-.172.692.692,0,0,0,.132-.3q1.008-4,1.76-8.1a8.72,8.72,0,0,1,.6-2.208,2.856,2.856,0,0,1,1.6-1.552,2.814,2.814,0,0,1,2.952,1.132,6.928,6.928,0,0,1,1.128,3.14,13.545,13.545,0,0,0,.752,3.276,1.912,1.912,0,0,0,.728.936,1.567,1.567,0,0,0,1.868-.448,4.188,4.188,0,0,0,.8-1.9,5.764,5.764,0,0,1,.676-1.96,4.66,4.66,0,0,1,2.892-1.64,9.123,9.123,0,0,0,3.2-1.112,6.56,6.56,0,0,0,1.752-2.176,6.369,6.369,0,0,0,1.1-3.336A4.3,4.3,0,0,0,30.883,0a7.86,7.86,0,0,1-1.048,2.58Z" transform="translate(0.293 0.388)"/>
    </g>
    <path id="Path-42" data-name="Path" d="M24.944,7.328a14.132,14.132,0,0,1,1.78,5.94c-3.564-2-6.916-4.2-8.608-4.96C15.168,6.976,4.144,7.176,0,7.3A13.972,13.972,0,0,1,1.512,5.116a14.472,14.472,0,0,1,3.3-2.888A14.308,14.308,0,0,1,24.964,7.32Z" transform="translate(117.496 46.16)" opacity="0.1"/>
    <path id="Path-43" data-name="Path" d="M9.548,4c-1.924.592-5.064-.552-8.32-2.192A15.688,15.688,0,0,1,0,0L10.984,2.072C11.712,2.568,11.9,3.276,9.548,4Z" transform="translate(145.612 59.02)" opacity="0.1"/>
    <path id="Path-44" data-name="Path" d="M14.888.018s-10.5-.6-13.452,5.1L.96,10.17l-.8-.088L0,13.518s16.048-.7,19.7.948,15,9.952,19.548,8.552-.4-2.7-.4-2.7-6.26-2.652-6.26-4.732S31.036,2.518,14.888.018Z" transform="translate(115.924 39.602)" fill="#444053"/>
    <path id="Path-45" data-name="Path" d="M0,0S6.7,6.5,9.6,6C9.6,6,1.4,5.3,0,0Z" transform="translate(110.56 226.9)" opacity="0.1"/>
    <path id="Path-46" data-name="Path" d="M0,0S.6,3.344,2.2,3.016,0,0,0,0Z" transform="translate(109.16 229.912)" opacity="0.1"/>
    <path id="Path-47" data-name="Path" d="M8.09,0S-1.422,7.4.182,7.6,8.09,0,8.09,0Z" transform="translate(111.57 285.8)" opacity="0.1"/>
    <path id="Path-48" data-name="Path" d="M0,5.012,30.8,0V29.16L1.536,27.628,0,5.012Z" transform="translate(132.384 133.92)" fill="#00d0d3"/>
    <path id="Path-49" data-name="Path" d="M0,5.012,30.8,0V29.16L1.536,27.628,0,5.012Z" transform="translate(132.384 133.92)" opacity="0.05"/>
    <path id="Path-50" data-name="Path" d="M0,0,36.936,2.764,34.892,28.14,0,29.16V0Z" transform="translate(163.184 133.92)" fill="#00d0d3"/>
    <path id="Path-51" data-name="Path" d="M0,0,36.936,2.764,34.892,28.14,0,29.16V0Z" transform="translate(163.184 133.92)" opacity="0.1"/>
    <path id="Path-52" data-name="Path" d="M11.356,0,0,8.9l36.936,2.764,6.036-9.108L11.356,0Z" transform="translate(163.184 125.02)" fill="#00d0d3"/>
    <path id="Path-53" data-name="Path" d="M0,3.376,27.728,0,41.952,8.084,11.152,13.1,0,3.376Z" transform="translate(121.232 125.836)" fill="#00d0d3"/>
    <path id="Path-54" data-name="Path" d="M37.552,2.56V42.428l-14.428-1.48-6.276-.64-1.912-.2-6.272-.644L0,38.576V0L30.8,2.1l6.756.464Z" transform="translate(132.384 138.932)" fill="#00d0d3"/>
    <path id="Path-55" data-name="Path" d="M30.184,0V38.88L18.62,41.1,13,42.18l-13,2.5V4.808L30.184,0Z" transform="translate(169.936 136.684)" fill="#00d0d3"/>
    <path id="Path-56" data-name="Path" d="M30.184,0V38.88L18.62,41.1,13,42.18l-13,2.5V4.808L30.184,0Z" transform="translate(169.936 136.684)" opacity="0.05"/>
    <path id="Path-57" data-name="Path" d="M0,8.392,11.152,0,48.7,2.56l-5.528,9.312L0,8.392Z" transform="translate(121.232 138.932)" fill="#00d0d3"/>
    <path id="Path-58" data-name="Path" d="M0,8.392,11.152,0,48.7,2.56l-5.528,9.312L0,8.392Z" transform="translate(121.232 138.932)" fill="#fff" opacity="0.1"/>
    <path id="Path-59" data-name="Path" d="M30.184,0,0,4.808l9.824,8.8L42.156,8.184,30.184,0Z" transform="translate(169.936 136.684)" fill="#00d0d3"/>
    <path id="Path-60" data-name="Path" d="M30.184,0,0,4.808l9.824,8.8L42.156,8.184,30.184,0Z" transform="translate(169.936 136.684)" fill="#fff" opacity="0.1"/>
    <path id="Path-61" data-name="Path" d="M5.624,8.556,0,9.636V1.328L5.268,0l.356,8.556Z" transform="translate(182.932 169.228)" fill="#fff" opacity="0.1"/>
    <path id="Path-62" data-name="Path" d="M6.276,0V5.5L0,4.856V0Z" transform="translate(149.232 174.384)" fill="#fff" opacity="0.1"/>
    <path id="Path-63" data-name="Path" d="M6.272,0V2.924L0,2.28V0Z" transform="translate(141.048 176.116)" fill="#fff" opacity="0.1"/>
    <path id="Path-64" data-name="Path" d="M30.484,16c-4.3,5.5-18.5,1.7-18.5,1.7L1.432,6.692,0,5.2,2.8,0s.8.264,2.136.728C12.008,3.2,34.1,11.372,30.484,16Z" transform="translate(135.676 155.468)" opacity="0.1"/>
    <path id="Path-65" data-name="Path" d="M30.484,16c-4.3,5.5-18.5,1.7-18.5,1.7L1.432,6.692,0,5.2,2.8,0s.8.264,2.136.728C12.008,3.2,34.1,11.372,30.484,16Z" transform="translate(135.276 154.668)" fill="#efb7b9"/>
    <path id="Path-66" data-name="Path" d="M4.936.728a23.648,23.648,0,0,1-3.5,5.964L0,5.2,2.8,0S3.6.264,4.936.728Z" transform="translate(135.26 154.668)" opacity="0.1"/>
    <path id="Path-67" data-name="Path" d="M10.6.069S.1,4.069,0,15.269a184.032,184.032,0,0,0,1.2,21.6s-3,16.7,5.5,21.5,16.4,8.8,16.4,8.8,13.58,2.2,15.248,2.9,7.464-8.3,6.564-9.8-13.264-5.2-14.732-7.7S25.1,48.385,25.1,48.385s-3.688-2.516-3.836-4.616.94-3.6,1.248-4.5,1.424-9.7,1.424-9.7S29.9-1.651,10.6.069Z" transform="translate(94.659 93.119)" fill="#dce6f2"/>
    <path id="Path-68" data-name="Path" d="M13.161,0S-1.039,1.6.061,6.6A29.874,29.874,0,0,1,13.161,0Z" transform="translate(96.899 130.268)" opacity="0.1"/>
    <path id="Path-69" data-name="Path" d="M6.761,0S-1.3,5.9.181,6.3,6.761,0,6.761,0Z" transform="translate(103.299 132.268)" opacity="0.1"/>
    <path id="Path-70" data-name="Path" d="M1.4,0S-.9,4.136.4,3.92,1.4,0,1.4,0Z" transform="translate(112.262 134.668)" opacity="0.1"/>
    <path id="Path-71" data-name="Path" d="M13.568.02S-1.632-.9.144,9.768A2.6,2.6,0,0,0,1.5,12.508s.028-.8,1.56-.524a7,7,0,0,0,1.652.08,3.428,3.428,0,0,0,2.024-.836h0s4.276-1.764,5.94-8.756c0,0,1.232-1.528,1.2-1.92L11.3,1.652a4.6,4.6,0,0,1,.184,3.392s-.08-3.324-.576-3.248c-.1,0-1.332.644-1.332.644s1.508,3.224.368,5.572c0,0,.432-3.976-.84-5.34L7.3,3.728S9.064,7.06,7.868,9.78c0,0,.308-4.172-.948-5.8L5.28,5.26s1.66,3.288.648,5.544c0,0-.132-4.856-1-5.224A9.894,9.894,0,0,0,3.276,7.364s1.132,2.4.428,3.644c0,0-.432-3.236-.8-3.252a10.768,10.768,0,0,0-1.576,3.6A7.784,7.784,0,0,1,2.556,7.54,4.284,4.284,0,0,0,.372,8.672s.22-1.516,2.536-1.648A10.942,10.942,0,0,1,4.4,5.3a9.379,9.379,0,0,0-3.7.428s1.228-1.428,4.124-.8l1.6-1.32a13.8,13.8,0,0,0-4.32.044S3.588,2.384,6.864,3.3l1.76-1.052A15.8,15.8,0,0,0,4.5,1.9s1.624-.876,4.64.072L10.4,1.4S8.5,1.032,7.952.972,7.368.76,7.368.76a6.544,6.544,0,0,1,3.556.4A15.7,15.7,0,0,0,13.568.02Z" transform="translate(247.94 44.936)" fill="#00d0d3"/>
    <path id="Path-72" data-name="Path" d="M13.568.02S-1.632-.9.144,9.768A2.6,2.6,0,0,0,1.5,12.508s.028-.8,1.564-.524a7,7,0,0,0,1.652.08,3.424,3.424,0,0,0,2-.832h0s4.28-1.768,5.944-8.76c0,0,1.228-1.524,1.18-1.916l-2.568,1.1a4.615,4.615,0,0,1,.188,3.392S11.372,1.72,10.88,1.8c-.1,0-1.336.644-1.336.644s1.512,3.228.372,5.572c0,0,.432-3.976-.844-5.34L7.284,3.716s1.764,3.332.568,6.052c0,0,.308-4.172-.948-5.8L5.268,5.252s1.656,3.284.648,5.54c0,0-.132-4.856-1-5.224A10.032,10.032,0,0,0,3.26,7.352S4.4,9.752,3.692,11c0,0-.432-3.236-.8-3.252a10.768,10.768,0,0,0-1.576,3.6A7.808,7.808,0,0,1,2.548,7.528,4.3,4.3,0,0,0,.36,8.66S.584,7.144,2.9,7.012A9.986,9.986,0,0,1,4.4,5.284a9.379,9.379,0,0,0-3.7.428s1.228-1.428,4.12-.78l1.6-1.32a13.805,13.805,0,0,0-4.32.044s1.48-1.264,4.756-.344L8.612,2.26A16.029,16.029,0,0,0,4.484,1.9s1.628-.876,4.644.072l1.26-.564S8.492,1.04,7.936.98,7.352.768,7.352.768a6.556,6.556,0,0,1,3.56.4A16.14,16.14,0,0,0,13.568.02Z" transform="translate(294.124 98.272)" fill="#00d0d3" opacity="0.1"/>
    <path id="Path-73" data-name="Path" d="M10.375,15.034S13.875.2,3.059.146A2.6,2.6,0,0,0,.131,1.01S.9,1.174.379,2.638a7.12,7.12,0,0,0-.36,1.6A3.436,3.436,0,0,0,.495,6.37h0s1.012,4.52,7.6,7.352c0,0,1.3,1.472,1.688,1.488l-.64-2.716a4.6,4.6,0,0,1-3.376-.4s3.292.484,3.3,0c0-.1-.4-1.424-.4-1.424s-3.436.936-5.556-.588c0,0,3.844,1.1,5.408.084L7.795,8.2s-3.6,1.172-6.064-.472c0,0,4.06,1.016,5.876.056L6.627,5.95s-3.52,1.072-5.572-.308c0,0,4.8.7,5.32-.1A9.939,9.939,0,0,0,4.9,3.614s-2.544.712-3.664-.2c0,0,3.26.124,3.336-.22A10.784,10.784,0,0,0,1.279,1.026,7.84,7.84,0,0,1,4.835,2.89,4.316,4.316,0,0,0,4.091.542s1.456.48,1.2,2.8A9.964,9.964,0,0,1,6.735,5.11a9.406,9.406,0,0,0,.208-3.72s1.2,1.456.068,4.2l1.024,1.82s.928-2.92.692-4.264c0,0,1,1.672-.472,4.744L8.995,9.8a16.017,16.017,0,0,0,1.052-4s.588,1.752-.864,4.564L9.527,11.7s.688-1.8.84-2.34.308-.54.308-.54a6.552,6.552,0,0,1-1,3.44A15.89,15.89,0,0,0,10.375,15.034Z" transform="translate(204.977 73.79)" fill="#00d0d3" opacity="0.1"/>
    <path id="Path-74" data-name="Path" d="M17.293,3.843S5.085-5.289.721,4.6A2.6,2.6,0,0,0,.345,7.635s.456-.644,1.6.424a7,7,0,0,0,1.336.976,3.432,3.432,0,0,0,2.148.4h0s4.544.876,9.776-4.048c0,0,1.868-.6,2.044-.952l-2.756-.484a4.621,4.621,0,0,1-1.708,2.936s1.756-2.824,1.3-3.028c-.092-.044-1.468-.2-1.468-.2s-.512,3.528-2.752,4.86c0,0,2.548-3.084,2.232-4.924l-2.092-.112S9.649,7.239,7.153,8.855c0,0,2.548-3.316,2.4-5.364l-2.072.168s-.42,3.652-2.5,4.98c0,0,2.556-4.128,2.032-4.912a10.055,10.055,0,0,0-2.36.58s-.364,2.616-1.644,3.28c0,0,1.42-2.94,1.132-3.144a10.752,10.752,0,0,0-3.3,2.148A7.812,7.812,0,0,1,3.961,4.079a4.308,4.308,0,0,0-2.448-.256s1.016-1.144,3.024.02a10.1,10.1,0,0,1,2.2-.62A9.361,9.361,0,0,0,3.409,1.547s1.816-.52,3.876,1.6l2.076-.212A13.7,13.7,0,0,0,5.729.6S7.661.355,9.889,2.923l2.048.092A15.967,15.967,0,0,0,8.689.447s1.836.16,3.836,2.612l1.364.22s-1.38-1.352-1.812-1.7-.372-.5-.372-.5a6.572,6.572,0,0,1,2.756,2.288A16.173,16.173,0,0,0,17.293,3.843Z" transform="translate(164.771 90.037)" fill="#00d0d3" opacity="0.1"/>
    <path id="Path-75" data-name="Path" d="M17.293,3.844S5.085-5.292.721,4.6A2.6,2.6,0,0,0,.345,7.636s.456-.644,1.6.424a7.116,7.116,0,0,0,1.34.972,3.428,3.428,0,0,0,2.148.4h0s4.544.876,9.776-4.052c0,0,1.868-.6,2.04-.952l-2.756-.476a4.6,4.6,0,0,1-1.708,2.936s1.76-2.824,1.3-3.028c-.092-.044-1.468-.2-1.468-.2S12.093,7.2,9.853,8.52c0,0,2.544-3.084,2.232-4.924L9.993,3.484S9.633,7.24,7.141,8.852c0,0,2.548-3.316,2.4-5.364l-2.068.168S7.049,7.312,4.965,8.64c0,0,2.56-4.128,2.036-4.912a10.055,10.055,0,0,0-2.36.58S4.277,6.924,3,7.588c0,0,1.42-2.94,1.132-3.148a10.793,10.793,0,0,0-3.3,2.152A7.776,7.776,0,0,1,3.953,4.08,4.28,4.28,0,0,0,1.5,3.824s1.02-1.144,3.028.02a9.879,9.879,0,0,1,2.2-.62A9.413,9.413,0,0,0,3.4,1.544s1.812-.516,3.872,1.6l2.076-.212A13.714,13.714,0,0,0,5.717.592S7.649.352,9.881,2.92l2.048.088A15.8,15.8,0,0,0,8.677.444s1.84.16,3.84,2.612l1.36.22S12.493,1.94,12.061,1.6s-.372-.5-.372-.5a6.56,6.56,0,0,1,2.756,2.288A17.269,17.269,0,0,0,17.293,3.844Z" transform="translate(205.415 5.192)" fill="#00d0d3" opacity="0.1"/>
    <path id="Path-76" data-name="Path" d="M16.112,10.09S11.232-4.354,2.028,1.322A2.629,2.629,0,0,0,0,3.606s.74-.272,1.068,1.248a7.2,7.2,0,0,0,.548,1.564A3.464,3.464,0,0,0,3.152,7.974h0S6.4,11.274,13.5,10.182c0,0,1.876.568,2.22.372l-2-1.964a4.6,4.6,0,0,1-3.072,1.448s3.052-1.328,2.8-1.756c-.052-.084-1.1-.992-1.1-.992S9.932,9.9,7.332,9.73c0,0,3.844-1.1,4.628-2.8L10.3,5.654s-2.424,2.888-5.4,2.8c0,0,4-1.284,5.012-3.06L8.12,4.358S5.72,7.13,3.232,7.042c0,0,4.448-1.948,4.46-2.892A10,10,0,0,0,5.42,3.29S3.636,5.238,2.22,5.062c0,0,2.832-1.62,2.712-1.952a10.732,10.732,0,0,0-3.94-.1,7.8,7.8,0,0,1,4-.3,4.316,4.316,0,0,0-1.876-1.6S4.6.746,5.6,2.842a10.072,10.072,0,0,1,2.16.736A9.4,9.4,0,0,0,5.972.31s1.788.6,2.276,3.528l1.832,1a13.5,13.5,0,0,0-1.668-4s1.732.9,2.108,4.276L12.16,6.35a15.9,15.9,0,0,0-1.224-3.96s1.424,1.176,1.68,4.332l1,.952s-.368-1.9-.52-2.432-.028-.572-.028-.572a6.6,6.6,0,0,1,.972,3.448A15.936,15.936,0,0,0,16.112,10.09Z" transform="translate(253.244 10.518)" fill="#00d0d3" opacity="0.1"/>
    <path id="Path-77" data-name="Path" d="M13.981.1S-1.179-1.592.073,9.164a2.6,2.6,0,0,0,1.2,2.8s.068-.8,1.6-.44a7.36,7.36,0,0,0,1.648.164,3.44,3.44,0,0,0,2.06-.732h0s4.364-1.548,6.4-8.448c0,0,1.3-1.46,1.276-1.856l-2.62.968a4.461,4.461,0,0,1,0,3.4s.084-3.324-.4-3.272c-.1,0-1.364.576-1.364.576s1.344,3.3.088,5.6c0,0,.632-3.952-.572-5.376l-1.86.96s1.6,3.42.26,6.076c0,0,.52-4.152-.652-5.836l-1.7,1.2s1.488,3.364.364,5.568c0,0,.116-4.856-.736-5.268a10.406,10.406,0,0,0-1.74,1.7s1.012,2.44.248,3.66c0,0-.268-3.252-.62-3.284a10.757,10.757,0,0,0-1.76,3.528A7.788,7.788,0,0,1,2.617,7.092a4.3,4.3,0,0,0-2.24,1.02s.3-1.5,2.616-1.516c0,0,1.26-1.564,1.6-1.648a9.4,9.4,0,0,0-3.72.24s1.3-1.368,4.156-.572L6.713,3.38s-3.044-.616-4.332-.216c0,0,1.544-1.2,4.768-.1L8.961,2.1a15.927,15.927,0,0,0-4.1-.564s1.668-.8,4.632.308l1.288-.5S8.9.876,8.349.788s-.572-.24-.572-.24a6.58,6.58,0,0,1,3.536.576A16.364,16.364,0,0,0,13.981.1Z" transform="translate(223.527 21.224)" fill="#00d0d3" opacity="0.1"/>
    <path id="Path-78" data-name="Path" d="M13.974.1S-1.178-1.592.074,9.152a2.6,2.6,0,0,0,1.2,2.8s.068-.8,1.6-.444a6.92,6.92,0,0,0,1.648.164,3.412,3.412,0,0,0,2.06-.732h0s4.364-1.548,6.38-8.444c0,0,1.3-1.464,1.276-1.856l-2.62.964a4.472,4.472,0,0,1,0,3.4s.084-3.328-.4-3.272c-.1,0-1.364.572-1.364.572s1.344,3.3.088,5.6c0,0,.632-3.948-.572-5.376l-1.86.964s1.6,3.42.264,6.076c0,0,.516-4.152-.656-5.84l-1.7,1.2s1.488,3.364.364,5.564c0,0,.116-4.856-.736-5.264a10.562,10.562,0,0,0-1.74,1.7s1.016,2.44.248,3.66c0,0-.268-3.252-.62-3.284a10.757,10.757,0,0,0-1.76,3.528A7.788,7.788,0,0,1,2.6,7.076,4.268,4.268,0,0,0,.358,8.1s.3-1.5,2.616-1.52c0,0,1.264-1.564,1.6-1.644a9.372,9.372,0,0,0-3.72.236S2.154,3.8,5.014,4.6l1.68-1.236S3.686,2.8,2.378,3.188c0,0,1.544-1.2,4.768-.1l1.812-.96a15.927,15.927,0,0,0-4.1-.564s1.668-.8,4.632.308l1.288-.5S8.9.9,8.346.812s-.572-.24-.572-.24a6.556,6.556,0,0,1,3.536.572A15.668,15.668,0,0,0,13.974.1Z" transform="translate(356.174 138.892)" fill="#00d0d3" opacity="0.1"/>
    <path id="Path-79" data-name="Path" d="M13.974.1S-1.178-1.588.074,9.152a2.6,2.6,0,0,0,1.2,2.8s.068-.8,1.6-.44a7.06,7.06,0,0,0,1.644.16,3.456,3.456,0,0,0,2.052-.728h0S10.93,9.4,12.946,2.5c0,0,1.308-1.46,1.276-1.856L11.6,1.6a4.472,4.472,0,0,1,0,3.4s.084-3.324-.4-3.272c-.1,0-1.364.572-1.364.572s1.344,3.3.088,5.6c0,0,.632-3.948-.572-5.372l-1.86.96s1.6,3.42.264,6.076c0,0,.516-4.152-.656-5.836l-1.7,1.2S6.89,8.3,5.77,10.5c0,0,.112-4.86-.74-5.268a10.562,10.562,0,0,0-1.74,1.7s1.016,2.44.248,3.66c0,0-.268-3.252-.62-3.284a10.694,10.694,0,0,0-1.756,3.528A7.808,7.808,0,0,1,2.582,7.08,4.3,4.3,0,0,0,.342,8.1s.3-1.5,2.62-1.516c0,0,1.26-1.564,1.6-1.648a9.4,9.4,0,0,0-3.72.24S2.142,3.808,5,4.6l1.68-1.236S3.674,2.8,2.366,3.192c0,0,1.544-1.2,4.768-.1l1.812-.964a15.927,15.927,0,0,0-4.1-.564s1.668-.8,4.632.308l1.288-.5S8.886.9,8.338.816s-.576-.24-.576-.24a6.58,6.58,0,0,1,3.536.576A15.825,15.825,0,0,0,13.974.1Z" transform="translate(379.338 153.044)" fill="#00d0d3" opacity="0.1"/>
    <path id="Path-80" data-name="Path" d="M17.293,3.843S5.085-5.289.721,4.6A2.6,2.6,0,0,0,.345,7.635s.456-.644,1.6.424a7,7,0,0,0,1.336.976,3.436,3.436,0,0,0,2.148.4h0s4.544.876,9.78-4.048c0,0,1.864-.6,2.04-.952l-2.748-.5a4.621,4.621,0,0,1-1.708,2.936s1.756-2.824,1.3-3.028c-.092-.044-1.464-.2-1.464-.2s-.516,3.528-2.756,4.86c0,0,2.548-3.084,2.232-4.924l-2.092-.112S9.657,7.227,7.161,8.843c0,0,2.552-3.316,2.4-5.364l-2.072.168s-.4,3.652-2.5,4.98c0,0,2.56-4.128,2.032-4.912a10.055,10.055,0,0,0-2.36.58s-.36,2.616-1.64,3.28c0,0,1.416-2.94,1.128-3.144a10.752,10.752,0,0,0-3.3,2.148A7.812,7.812,0,0,1,3.969,4.067a4.308,4.308,0,0,0-2.448-.256s1.02-1.144,3.028.02a10.057,10.057,0,0,1,2.2-.62A9.361,9.361,0,0,0,3.417,1.535s1.816-.52,3.876,1.6l2.076-.212A13.629,13.629,0,0,0,5.737.587S7.669.343,9.9,2.911L11.949,3A16.036,16.036,0,0,0,8.7.435s1.84.16,3.836,2.612l1.364.22s-1.38-1.352-1.812-1.7-.368-.468-.368-.468a6.576,6.576,0,0,1,2.752,2.288A16.062,16.062,0,0,0,17.293,3.843Z" transform="translate(324.591 30.093)" fill="#00d0d3" opacity="0.1"/>
    <path id="Path-81" data-name="Path" d="M15.8,10.532S11.6-4.12,2.132,1.14A2.6,2.6,0,0,0,0,3.328s.752-.236,1.012,1.3a7.092,7.092,0,0,0,.48,1.6A3.436,3.436,0,0,0,2.956,7.856h0s3.1,3.44,10.24,2.672c0,0,1.848.648,2.2.472L13.5,8.944a4.6,4.6,0,0,1-3.132,1.312s3.1-1.2,2.864-1.628c-.048-.088-1.048-1.044-1.048-1.044S9.652,10.088,7.06,9.8c0,0,3.892-.92,4.748-2.576l-1.6-1.352S7.656,8.644,4.692,8.428c0,0,4.032-1.108,5.144-2.832L8.084,4.48s-2.54,2.66-5,2.46c0,0,4.532-1.748,4.588-2.688a9.986,9.986,0,0,0-2.236-.96S3.564,5.156,2.144,4.916c0,0,2.9-1.492,2.8-1.828a10.8,10.8,0,0,0-3.932-.28,7.8,7.8,0,0,1,4-.116,4.292,4.292,0,0,0-1.8-1.68s1.5-.3,2.4,1.84a9.98,9.98,0,0,1,2.124.832A9.355,9.355,0,0,0,6.1.34s1.76.68,2.116,3.624L10,5.048s-.624-3-1.488-4.056c0,0,1.688.972,1.916,4.364l1.6,1.308a15.865,15.865,0,0,0-1.044-4s1.372,1.24,1.484,4.4l.952,1s-.28-1.912-.4-2.456,0-.62,0-.62a6.556,6.556,0,0,1,.82,3.488A15.876,15.876,0,0,0,15.8,10.532Z" transform="translate(335.512 89.332)" fill="#00d0d3" opacity="0.1"/>
    <path id="Path-82" data-name="Path" d="M17.228,7.625S9.056-5.247,1.468,2.457a2.587,2.587,0,0,0-1.432,2.7s.66-.44,1.34.96A6.848,6.848,0,0,0,2.28,7.5,3.416,3.416,0,0,0,4.14,8.653h0s3.94,2.432,10.58-.32c0,0,1.956.1,2.244-.164l-2.4-1.44a4.6,4.6,0,0,1-2.64,2.14s2.648-2,2.292-2.368c-.068-.072-1.3-.7-1.3-.7s-1.732,3.112-4.3,3.564c0,0,3.476-1.98,3.836-3.812l-1.916-.844s-1.668,3.38-4.572,4c0,0,3.56-2.2,4.14-4.164l-2-.576S6.416,7.233,4,7.733c0,0,3.856-2.952,3.644-3.872a9.936,9.936,0,0,0-2.4-.292S3.972,5.885,2.54,6.053c0,0,2.368-2.248,2.172-2.544a10.778,10.778,0,0,0-3.852.84,7.784,7.784,0,0,1,3.816-1.24A4.292,4.292,0,0,0,2.48,2s1.356-.708,2.8,1.092a9.881,9.881,0,0,1,2.276.2A9.208,9.208,0,0,0,5.04.545s1.88.16,3.048,2.884l2.02.536S8.664,1.265,7.54.493c0,0,1.892.456,3.064,3.652l1.888.8A15.944,15.944,0,0,0,10.36,1.393s1.664.8,2.66,3.8l1.2.692s-.8-1.756-1.084-2.24-.172-.6-.172-.6a6.56,6.56,0,0,1,1.764,3.116A16.264,16.264,0,0,0,17.228,7.625Z" transform="translate(240.32 125.255)" fill="#00d0d3" opacity="0.1"/>
    <path id="Path-83" data-name="Path" d="M17.136,7.949S9.364-5.167,1.536,2.3A2.6,2.6,0,0,0,.024,4.953s.668-.424,1.308,1a6.912,6.912,0,0,0,.86,1.416,3.4,3.4,0,0,0,1.824,1.2h0s3.86,2.552,10.584,0c0,0,1.952.164,2.248-.1L14.5,6.957a4.6,4.6,0,0,1-2.7,2.056s2.708-1.932,2.368-2.3c-.072-.076-1.28-.748-1.28-.748s-1.828,3.06-4.4,3.432c0,0,3.536-1.872,3.948-3.688l-1.888-.888s-1.772,3.332-4.7,3.864c0,0,3.628-2.084,4.268-4.032L8.14,4.017s-1.792,3.2-4.224,3.64c0,0,3.944-2.832,3.76-3.756a9.879,9.879,0,0,0-2.4-.368S3.936,5.809,2.5,5.933c0,0,2.436-2.168,2.252-2.472a10.767,10.767,0,0,0-3.876.72,7.808,7.808,0,0,1,3.852-1.12A4.3,4.3,0,0,0,2.564,1.885s1.38-.668,2.8,1.176a10.133,10.133,0,0,1,2.268.272A9.568,9.568,0,0,0,5.2.509S7.076.725,8.16,3.485l2,.6S8.8,1.341,7.7.533c0,0,1.88.516,2.952,3.744l1.86.868a16.072,16.072,0,0,0-2-3.6s1.636.852,2.544,3.884l1.172.728s-.752-1.78-1.016-2.272-.152-.6-.152-.6a6.572,6.572,0,0,1,1.668,3.168A15.486,15.486,0,0,0,17.136,7.949Z" transform="translate(294.12 59.163)" fill="#00d0d3"/>
    <path id="Path-84" data-name="Path" d="M12.884,13.3S13.284-1.941,2.7.207A2.606,2.606,0,0,0,0,1.651s.8,0,.576,1.54A7.024,7.024,0,0,0,.552,4.847a3.42,3.42,0,0,0,.9,2h0S3.36,11.063,10.4,12.5c0,0,1.564,1.18,1.956,1.116l-1.2-2.528a4.617,4.617,0,0,1-3.384.3s3.32-.2,3.228-.684c0-.1-.688-1.316-.688-1.316S7.14,11,4.76,9.939c0,0,4,.3,5.308-1.016L8.952,7.151S5.68,9.023,2.92,7.919c0,0,4.18.168,5.764-1.14l-1.332-1.6s-3.228,1.768-5.516.832c0,0,4.848-.292,5.2-1.176a10.374,10.374,0,0,0-1.84-1.6s-2.344,1.2-3.624.552c0,0,3.2-.536,3.22-.892A10.735,10.735,0,0,0,1.128,1.439a7.788,7.788,0,0,1,3.86,1.1A4.3,4.3,0,0,0,3.788.4S5.312.567,5.52,2.875A9.945,9.945,0,0,1,7.3,4.315,9.354,9.354,0,0,0,6.744.631s1.472,1.18.92,4.092L9.036,6.3s.312-3.048-.188-4.316c0,0,1.312,1.436.5,4.74L10.46,8.447a15.949,15.949,0,0,0,.22-4.136s.928,1.6.08,4.644l.608,1.24s.308-1.908.348-2.464.192-.592.192-.592a6.568,6.568,0,0,1-.276,3.572A15.248,15.248,0,0,0,12.884,13.3Z" transform="translate(249.2 81.393)" fill="#00d0d3"/>
    <ellipse id="Oval-2" data-name="Oval" cx="10.772" cy="1.82" rx="10.772" ry="1.82" transform="translate(268.816 284.7)" fill="#00d0d3" opacity="0.1"/>
    <ellipse id="Oval-3" data-name="Oval" cx="10.772" cy="1.82" rx="10.772" ry="1.82" transform="translate(229.548 312.332)" fill="#00d0d3" opacity="0.1"/>
    <ellipse id="Oval-4" data-name="Oval" cx="10.772" cy="1.82" rx="10.772" ry="1.82" transform="translate(26.484 298.176)" fill="#00d0d3" opacity="0.1"/>
    <ellipse id="Oval-5" data-name="Oval" cx="10.772" cy="1.82" rx="10.772" ry="1.82" transform="translate(311.252 310.512)" fill="#00d0d3" opacity="0.1"/>
    <ellipse id="Oval-6" data-name="Oval" cx="16.084" cy="2.72" rx="16.084" ry="2.72" transform="translate(317.156 286.52)" fill="#00d0d3"/>
    <path id="Path-85" data-name="Path" d="M14.878,7.408A4.644,4.644,0,0,0,16.41,5.1,2.055,2.055,0,0,0,15.342,2.74c-.984-.376-2.036.3-2.836.992S10.8,5.208,9.754,5.064a4.2,4.2,0,0,0,1.3-3.924,1.644,1.644,0,0,0-.36-.8C10.142-.244,9.154.008,8.5.468,6.418,1.932,5.838,4.756,5.826,7.3A12.842,12.842,0,0,1,5.79,4.5,2.873,2.873,0,0,0,4.73,2.012a3.164,3.164,0,0,0-1.6-.4,3.342,3.342,0,0,0-2.616.744,2.578,2.578,0,0,0,.1,3.2A10.345,10.345,0,0,0,3.322,7.724,6.052,6.052,0,0,1,5.258,9.568,1.88,1.88,0,0,1,5.4,9.9h5.864A16.176,16.176,0,0,0,14.878,7.408Z" transform="translate(325.03 277.38)" fill="#00d0d3"/>
    <path id="Path-86" data-name="Path" d="M0,3.319s6.14-.188,8-1.508,9.452-2.892,9.912-.776,9.232,10.516,2.3,10.572S4.092,10.527,2.244,9.4,0,3.319,0,3.319Z" transform="translate(30.024 288.217)" fill="#00d0d3"/>
    <path id="Path-87" data-name="Path" d="M20.324,7.56C13.388,7.616,4.208,6.48,2.36,5.352.952,4.5.392,1.42.2,0H0S.4,4.956,2.236,6.08,13.264,8.344,20.2,8.288c2,0,2.692-.728,2.656-1.784C22.576,7.148,21.812,7.548,20.324,7.56Z" transform="translate(30.024 291.528)" opacity="0.2"/>
  </g>
</svg>
