<svg xmlns="http://www.w3.org/2000/svg" width="48" height="42" viewBox="0 0 48 42">
  <path id="Upload" d="M6,42a6,6,0,0,1-6-6V30.818a4,4,0,0,1,1.18-2.823l3.42-3.42A2,2,0,0,1,7.42,27.4L4,30.818V36a2,2,0,0,0,2,2H42a2,2,0,0,0,2-2V30.818L40.58,27.4a2,2,0,0,1,2.821-2.82l3.42,3.417A4,4,0,0,1,48,30.815V36a6,6,0,0,1-6,6ZM22.677,28.617V6.815l-7.9,7.9A2,2,0,0,1,12,12L23.28.572a2,2,0,0,1,3.4,1.42V28.617h0a2,2,0,1,1-4,0ZM34.6,14.716l-1.369-1.369-.052-.05L28.94,9.058a2,2,0,0,1,2.82-2.821L33.114,7.6l.066.055L37.4,11.8a2,2,0,0,1,0,2.821l.022.1a2,2,0,0,1-2.82,0Z" transform="translate(0 0)" fill="#acbbd0" opacity="0.95"/>
</svg>
